<svg width="40" height="40" viewBox="0 0 40 40" fill="none" xmlns="http://www.w3.org/2000/svg">
<path d="M17 19C19.2091 19 21 17.2091 21 15C21 12.7909 19.2091 11 17 11C14.7909 11 13 12.7909 13 15C13 17.2091 14.7909 19 17 19Z" fill="#637381"/>
<path d="M25 21C26.6569 21 28 19.6569 28 18C28 16.3431 26.6569 15 25 15C23.3431 15 22 16.3431 22 18C22 19.6569 23.3431 21 25 21Z" fill="#637381"/>
<path d="M29 28C29.5523 28 30 27.5523 30 27C29.9984 25.0933 28.9125 23.3535 27.2003 22.5145C25.4882 21.6754 23.4479 21.8831 21.94 23.05C19.9371 21.0549 16.9307 20.4605 14.3192 21.5431C11.7077 22.6258 10.0038 25.173 10 28C10 28.5523 10.4477 29 11 29H23C23.5523 29 24 28.5523 24 28" fill="#637381"/>
</svg>
