      <svg width="282" height="51" viewBox="0 0 282 51" fill="none" xmlns="http://www.w3.org/2000/svg">
                <path d="M12.4946 37.699V19.1145H5.78444V14.6739H24.3361V19.1145H17.4286V37.699H12.4946ZM28.411 37.699V14.6739H43.9693V19.0158H33.2133V33.3571H44.1996V37.699H28.411ZM30.7135 28.0614V23.8511H42.3905V28.0614H30.7135ZM62.9738 37.699L55.836 27.3706L46.6917 14.6739H52.744L59.7174 24.8707L69.0261 37.699H62.9738ZM46.5273 37.699L55.3097 25.1668L59.0595 27.7653L52.2507 37.699H46.5273ZM60.2436 27.0088L56.5267 24.5089L62.9738 14.6739H68.6971L60.2436 27.0088ZM72.2575 37.699V14.6739H77.1915V33.2585H87.6186V37.699H72.2575ZM89.4752 37.699L98.4879 14.6739H102.896L111.875 37.699H106.81L102.172 25.2984C102.04 24.9475 101.876 24.498 101.679 23.9497C101.503 23.4015 101.317 22.8204 101.119 22.2064C100.922 21.5924 100.736 21.0113 100.56 20.4631C100.385 19.8929 100.253 19.4215 100.165 19.0487L101.054 19.0158C100.922 19.5202 100.768 20.0464 100.593 20.5947C100.44 21.1209 100.275 21.6692 100.1 22.2393C99.9242 22.7875 99.7378 23.3248 99.5405 23.8511C99.3431 24.3773 99.1567 24.8927 98.9813 25.397L94.3434 37.699H89.4752ZM93.6526 32.8637L95.2644 28.8837H105.823L107.468 32.8637H93.6526Z" fill="#1939B7"/>
                <rect x="1.17475" y="1.17475" width="115.049" height="48.0485" stroke="#1939B7" stroke-width="2.3495"/>
                <path d="M135.188 38.0279C133.5 38.0279 131.943 37.7429 130.518 37.1727C129.114 36.5806 127.886 35.7583 126.834 34.7057C125.803 33.6312 125.003 32.3703 124.432 30.9231C123.862 29.4538 123.577 27.853 123.577 26.1207C123.577 24.4322 123.873 22.8752 124.465 21.4499C125.057 20.0026 125.891 18.7527 126.965 17.7001C128.04 16.6256 129.301 15.7923 130.748 15.2002C132.195 14.6081 133.763 14.3121 135.452 14.3121C136.548 14.3121 137.622 14.4656 138.675 14.7726C139.75 15.0577 140.725 15.4853 141.603 16.0554C142.502 16.6256 143.269 17.3054 143.905 18.0948L140.813 21.5157C140.287 20.9894 139.739 20.5398 139.168 20.167C138.62 19.7723 138.028 19.4763 137.392 19.2789C136.778 19.0597 136.12 18.95 135.419 18.95C134.476 18.95 133.588 19.1254 132.754 19.4763C131.943 19.8272 131.23 20.3205 130.616 20.9565C130.002 21.5705 129.509 22.327 129.136 23.2261C128.785 24.1032 128.61 25.0791 128.61 26.1536C128.61 27.25 128.785 28.2478 129.136 29.1468C129.487 30.024 129.98 30.7805 130.616 31.4164C131.252 32.0304 132.009 32.5129 132.886 32.8637C133.785 33.1927 134.772 33.3571 135.846 33.3571C136.548 33.3571 137.228 33.2585 137.886 33.0611C138.543 32.8637 139.147 32.5896 139.695 32.2388C140.265 31.8879 140.769 31.4822 141.208 31.0217L143.609 34.8702C143.083 35.4623 142.37 35.9995 141.471 36.482C140.594 36.9644 139.607 37.3481 138.511 37.6332C137.414 37.8964 136.307 38.0279 135.188 38.0279ZM157.242 37.8964C155.378 37.8964 153.711 37.5126 152.242 36.7451C150.795 35.9557 149.654 34.8812 148.821 33.5216C147.988 32.1401 147.571 30.5832 147.571 28.8508V14.641H152.538V28.5548C152.538 29.4758 152.746 30.309 153.163 31.0546C153.58 31.7783 154.139 32.3594 154.84 32.798C155.564 33.2365 156.364 33.4558 157.242 33.4558C158.141 33.4558 158.952 33.2365 159.676 32.798C160.421 32.3594 161.002 31.7783 161.419 31.0546C161.858 30.309 162.077 29.4758 162.077 28.5548V14.641H166.879V28.8508C166.879 30.5832 166.463 32.1401 165.629 33.5216C164.796 34.8812 163.645 35.9557 162.176 36.7451C160.728 37.5126 159.084 37.8964 157.242 37.8964ZM172.663 37.699V14.6739H177.597V33.2585H188.024V37.699H172.663ZM194.651 37.699V19.1145H187.94V14.6739H206.492V19.1145H199.585V37.699H194.651ZM220.04 37.8964C218.176 37.8964 216.51 37.5126 215.04 36.7451C213.593 35.9557 212.453 34.8812 211.62 33.5216C210.786 32.1401 210.37 30.5832 210.37 28.8508V14.641H215.336V28.5548C215.336 29.4758 215.545 30.309 215.961 31.0546C216.378 31.7783 216.937 32.3594 217.639 32.798C218.363 33.2365 219.163 33.4558 220.04 33.4558C220.939 33.4558 221.751 33.2365 222.474 32.798C223.22 32.3594 223.801 31.7783 224.218 31.0546C224.656 30.309 224.875 29.4758 224.875 28.5548V14.641H229.678V28.8508C229.678 30.5832 229.261 32.1401 228.428 33.5216C227.595 34.8812 226.443 35.9557 224.974 36.7451C223.527 37.5126 221.882 37.8964 220.04 37.8964ZM235.462 37.699V14.6739H245.658C247.084 14.6739 248.378 15.0029 249.54 15.6607C250.702 16.2966 251.612 17.1628 252.27 18.2593C252.95 19.3557 253.29 20.6056 253.29 22.0091C253.29 23.3906 252.95 24.6515 252.27 25.7917C251.612 26.9101 250.702 27.7982 249.54 28.4561C248.378 29.1139 247.084 29.4429 245.658 29.4429H240.231V37.699H235.462ZM248.52 37.699L242.665 27.3048L247.731 26.4825L254.243 37.7319L248.52 37.699ZM240.231 25.4299H245.428C246.02 25.4299 246.536 25.2984 246.974 25.0352C247.435 24.7501 247.785 24.3664 248.027 23.884C248.268 23.3796 248.389 22.8204 248.389 22.2064C248.389 21.5486 248.246 20.9784 247.961 20.496C247.676 20.0135 247.259 19.6408 246.711 19.3776C246.163 19.0925 245.527 18.95 244.803 18.95H240.231V25.4299ZM258.493 37.699V14.6739H274.051V19.0158H263.295V33.3571H274.282V37.699H258.493ZM260.796 28.0614V23.8511H272.473V28.0614H260.796Z" fill="#1939B7"/>
                </svg>   