<svg width="40" height="40" viewBox="0 0 40 40" fill="none" xmlns="http://www.w3.org/2000/svg">
<path fill-rule="evenodd" clip-rule="evenodd" d="M26.7196 21.4L28.5196 23.21C28.9819 23.6799 29.1178 24.381 28.8648 24.9896C28.6117 25.5983 28.0188 25.9963 27.3596 26H23.9996V26.34C23.9024 28.4537 22.1136 30.0904 19.9996 30C17.8856 30.0904 16.0969 28.4537 15.9996 26.34V26H12.6396C11.9805 25.9963 11.3876 25.5983 11.1345 24.9896C10.8814 24.381 11.0174 23.6799 11.4796 23.21L13.2796 21.4V16.73C13.2832 14.7912 14.1215 12.9478 15.5804 11.6708C17.0392 10.3938 18.9774 9.80685 20.8996 10.06C24.2851 10.5789 26.7691 13.5153 26.7196 16.94V21.4ZM19.9996 28C21.003 28.0708 21.8844 27.3393 21.9996 26.34V26H17.9996V26.34C18.1148 27.3393 18.9962 28.0708 19.9996 28Z" fill="#637381"/>
<rect x="20" width="20" height="20" rx="10" fill="#FF5630"/>
<path d="M28.3698 9.428C27.5378 9.012 27.1218 8.356 27.1218 7.46C27.1218 7.028 27.2298 6.632 27.4458 6.272C27.6618 5.912 27.9858 5.628 28.4178 5.42C28.8498 5.204 29.3778 5.096 30.0018 5.096C30.6178 5.096 31.1418 5.204 31.5738 5.42C32.0138 5.628 32.3418 5.912 32.5578 6.272C32.7738 6.632 32.8818 7.028 32.8818 7.46C32.8818 7.908 32.7658 8.304 32.5338 8.648C32.3098 8.984 32.0098 9.244 31.6338 9.428C32.0898 9.596 32.4498 9.872 32.7138 10.256C32.9778 10.632 33.1098 11.076 33.1098 11.588C33.1098 12.108 32.9778 12.568 32.7138 12.968C32.4498 13.368 32.0818 13.676 31.6098 13.892C31.1378 14.108 30.6018 14.216 30.0018 14.216C29.4018 14.216 28.8658 14.108 28.3938 13.892C27.9298 13.676 27.5658 13.368 27.3018 12.968C27.0378 12.568 26.9058 12.108 26.9058 11.588C26.9058 11.068 27.0378 10.62 27.3018 10.244C27.5658 9.868 27.9218 9.596 28.3698 9.428ZM31.5738 7.628C31.5738 7.18 31.4338 6.836 31.1538 6.596C30.8738 6.356 30.4898 6.236 30.0018 6.236C29.5218 6.236 29.1418 6.356 28.8618 6.596C28.5818 6.836 28.4418 7.184 28.4418 7.64C28.4418 8.04 28.5858 8.368 28.8738 8.624C29.1698 8.872 29.5458 8.996 30.0018 8.996C30.4578 8.996 30.8338 8.868 31.1298 8.612C31.4258 8.356 31.5738 8.028 31.5738 7.628ZM30.0018 10.028C29.4738 10.028 29.0418 10.16 28.7058 10.424C28.3778 10.68 28.2138 11.052 28.2138 11.54C28.2138 11.996 28.3738 12.368 28.6938 12.656C29.0138 12.936 29.4498 13.076 30.0018 13.076C30.5458 13.076 30.9738 12.932 31.2858 12.644C31.6058 12.356 31.7658 11.988 31.7658 11.54C31.7658 11.06 31.6018 10.688 31.2738 10.424C30.9538 10.16 30.5298 10.028 30.0018 10.028Z" fill="white"/>
</svg>