<svg width="496" height="451" viewBox="0 0 496 451" fill="none" xmlns="http://www.w3.org/2000/svg">
<g filter="url(#filter0_d_1_3258)">
<rect x="2" y="1" width="492" height="447" rx="24" fill="white"/>
<path d="M377 259.5C377 331.021 319.021 389 247.5 389C175.979 389 118 331.021 118 259.5C118 187.979 175.979 130 247.5 130C319.021 130 377 187.979 377 259.5ZM175.467 259.5C175.467 299.283 207.717 331.533 247.5 331.533C287.283 331.533 319.533 299.283 319.533 259.5C319.533 219.717 287.283 187.467 247.5 187.467C207.717 187.467 175.467 219.717 175.467 259.5Z" fill="#FF5630"/>
<path d="M377 259.5C377 232.922 368.822 206.988 353.577 185.218C338.332 163.447 316.757 146.894 291.782 137.806C266.806 128.718 239.639 127.535 213.968 134.417C188.296 141.299 165.364 155.913 148.284 176.275C131.203 196.638 120.802 221.762 118.491 248.239C116.179 274.717 122.071 301.264 135.365 324.277C148.66 347.291 168.713 365.657 192.804 376.882C216.895 388.108 243.856 391.649 270.029 387.025L260.031 330.434C245.473 333.006 230.476 331.037 217.076 324.793C203.676 318.549 192.521 308.333 185.126 295.532C177.732 282.73 174.454 267.964 175.74 253.236C177.025 238.509 182.811 224.534 192.312 213.207C201.813 201.881 214.569 193.752 228.848 189.924C243.127 186.096 258.239 186.754 272.131 191.809C286.024 196.864 298.024 206.072 306.504 218.181C314.984 230.291 319.533 244.716 319.533 259.5H377Z" fill="#FFAB00"/>
<path d="M377 259.5C377 241.863 373.397 224.411 366.412 208.215C359.428 192.02 349.208 177.422 336.381 165.317C323.553 153.212 308.388 143.854 291.816 137.819C275.243 131.783 257.612 129.196 240.004 130.217C222.396 131.238 205.183 135.845 189.418 143.756C173.654 151.666 159.672 162.713 148.33 176.22C136.988 189.727 128.524 205.408 123.457 222.302C118.391 239.196 116.829 256.947 118.868 274.467L175.95 267.825C174.816 258.08 175.685 248.206 178.503 238.809C181.321 229.412 186.029 220.689 192.338 213.176C198.647 205.664 206.424 199.519 215.193 195.118C223.961 190.718 233.536 188.156 243.331 187.588C253.125 187.02 262.932 188.459 272.15 191.816C281.368 195.173 289.804 200.378 296.939 207.112C304.074 213.845 309.758 221.965 313.644 230.974C317.529 239.982 319.533 249.689 319.533 259.5H377Z" fill="#3366FF"/>
<path d="M377 259.5C377 229.392 366.509 200.224 347.331 177.014C328.154 153.804 301.488 138.001 271.92 132.323C242.352 126.646 211.729 131.448 185.319 145.905C158.909 160.362 138.361 183.569 127.21 211.536L180.59 232.821C186.793 217.264 198.222 204.356 212.913 196.314C227.603 188.273 244.636 185.601 261.083 188.759C277.53 191.917 292.363 200.708 303.03 213.618C313.697 226.529 319.533 242.753 319.533 259.5H377Z" fill="#36B37E"/>
<path d="M319.917 259.502C319.917 299.496 287.496 331.917 247.502 331.917C207.509 331.917 175.088 299.496 175.088 259.502C175.088 219.509 207.509 187.088 247.502 187.088C287.496 187.088 319.917 219.509 319.917 259.502ZM180.001 259.502C180.001 296.782 210.222 327.004 247.502 327.004C284.782 327.004 315.004 296.782 315.004 259.502C315.004 222.222 284.782 192.001 247.502 192.001C210.222 192.001 180.001 222.222 180.001 259.502Z" fill="#DFE3E8"/>
<path d="M33.4 43V31.432H41.048L41.04 33.104H35.36V36.344H40.376V37.992H35.344V41.304L41.16 41.312V43H33.4ZM45.4324 43.16C44.9044 43.16 44.4297 43.064 44.0084 42.872C43.5924 42.6747 43.2644 42.3947 43.0244 42.032C42.7897 41.664 42.6724 41.2187 42.6724 40.696C42.6724 39.784 43.0004 39.096 43.6564 38.632C44.3177 38.168 45.371 37.9253 46.8164 37.904L48.0484 37.872V37.312C48.0484 36.8747 47.9177 36.5333 47.6564 36.288C47.4004 36.0373 47.0004 35.9147 46.4564 35.92C46.0564 35.9253 45.6884 36.0213 45.3524 36.208C45.0217 36.3893 44.803 36.696 44.6964 37.128H43.0404C43.0724 36.5627 43.235 36.0907 43.5284 35.712C43.827 35.328 44.235 35.0427 44.7524 34.856C45.2697 34.664 45.867 34.568 46.5444 34.568C47.3337 34.568 47.9764 34.672 48.4724 34.88C48.9684 35.088 49.3337 35.3893 49.5684 35.784C49.803 36.1733 49.9204 36.6453 49.9204 37.2V43H48.2804L48.1284 41.512C47.8297 42.136 47.451 42.568 46.9924 42.808C46.539 43.0427 46.019 43.16 45.4324 43.16ZM46.0644 41.84C46.3044 41.84 46.5417 41.7973 46.7764 41.712C47.011 41.6213 47.2244 41.5013 47.4164 41.352C47.6084 41.1973 47.7604 41.0267 47.8724 40.84C47.9897 40.6533 48.0484 40.4587 48.0484 40.256V38.952L47.0324 38.968C46.531 38.9733 46.0937 39.0267 45.7204 39.128C45.347 39.2293 45.0537 39.392 44.8404 39.616C44.6324 39.8347 44.5284 40.128 44.5284 40.496C44.5284 40.9173 44.675 41.248 44.9684 41.488C45.2617 41.7227 45.627 41.84 46.0644 41.84ZM55.2004 43.16C54.6244 43.16 54.0777 43.0693 53.5604 42.888C53.0484 42.7013 52.6164 42.4107 52.2644 42.016C51.9177 41.6213 51.699 41.112 51.6084 40.488H53.3204C53.395 40.792 53.5257 41.04 53.7124 41.232C53.9044 41.424 54.131 41.5653 54.3924 41.656C54.6537 41.7413 54.9204 41.784 55.1924 41.784C55.6884 41.784 56.0884 41.6987 56.3924 41.528C56.7017 41.3573 56.8564 41.0933 56.8564 40.736C56.8564 40.4747 56.771 40.2667 56.6004 40.112C56.4297 39.9573 56.1577 39.84 55.7844 39.76L54.2084 39.4C53.5097 39.2453 52.947 38.9893 52.5204 38.632C52.099 38.2747 51.8857 37.7707 51.8804 37.12C51.875 36.6293 51.9977 36.192 52.2484 35.808C52.499 35.424 52.8724 35.1227 53.3684 34.904C53.8644 34.68 54.4777 34.568 55.2084 34.568C56.1737 34.568 56.947 34.784 57.5284 35.216C58.1097 35.6427 58.4084 36.2533 58.4244 37.048H56.7684C56.7097 36.6907 56.5417 36.4133 56.2644 36.216C55.987 36.0133 55.627 35.912 55.1844 35.912C54.7257 35.912 54.3497 36 54.0564 36.176C53.763 36.352 53.6164 36.6213 53.6164 36.984C53.6164 37.2347 53.7284 37.432 53.9524 37.576C54.1764 37.72 54.5124 37.8427 54.9604 37.944L56.4484 38.304C56.875 38.4107 57.2244 38.5547 57.4964 38.736C57.7684 38.9173 57.9817 39.1173 58.1364 39.336C58.291 39.5493 58.3977 39.7707 58.4564 40C58.5204 40.224 58.5524 40.432 58.5524 40.624C58.5524 41.1573 58.4137 41.6133 58.1364 41.992C57.8644 42.3653 57.4777 42.6533 56.9764 42.856C56.475 43.0587 55.883 43.16 55.2004 43.16ZM64.9018 36.104H63.0538L63.0618 40.848C63.0618 41.0933 63.0884 41.2747 63.1418 41.392C63.2004 41.504 63.2911 41.5787 63.4138 41.616C63.5418 41.648 63.7124 41.664 63.9258 41.664H64.9418V42.896C64.8351 42.9387 64.6724 42.976 64.4538 43.008C64.2404 43.0453 63.9524 43.064 63.5898 43.064C62.9338 43.064 62.4244 42.9787 62.0618 42.808C61.7044 42.632 61.4564 42.384 61.3178 42.064C61.1791 41.744 61.1098 41.3627 61.1098 40.92V36.104H59.7658V34.728H61.1658L61.6538 32.272H63.0538V34.72H64.9018V36.104Z" fill="black"/>
<circle cx="84.5" cy="37" r="6.5" fill="#FFAB00"/>
<path d="M155.968 31.432H157.912V43H156.16L150.344 34.512V43H148.4V31.432H150.304L155.968 39.696V31.432ZM163.677 43.16C162.887 43.16 162.199 42.992 161.613 42.656C161.026 42.3147 160.57 41.8267 160.245 41.192C159.925 40.5573 159.765 39.7947 159.765 38.904C159.765 38.04 159.919 37.2827 160.229 36.632C160.543 35.9813 160.994 35.4747 161.581 35.112C162.167 34.7493 162.869 34.568 163.685 34.568C164.474 34.568 165.159 34.7413 165.741 35.088C166.322 35.4347 166.77 35.9307 167.085 36.576C167.405 37.2213 167.565 37.9973 167.565 38.904C167.565 39.7413 167.413 40.48 167.109 41.12C166.81 41.7547 166.37 42.2533 165.789 42.616C165.213 42.9787 164.509 43.16 163.677 43.16ZM163.685 41.68C164.133 41.68 164.501 41.5573 164.789 41.312C165.082 41.0667 165.298 40.7307 165.437 40.304C165.581 39.8773 165.653 39.392 165.653 38.848C165.653 38.3413 165.589 37.8747 165.461 37.448C165.338 37.0213 165.13 36.68 164.837 36.424C164.549 36.1627 164.165 36.032 163.685 36.032C163.231 36.032 162.855 36.152 162.557 36.392C162.263 36.6267 162.042 36.9573 161.893 37.384C161.749 37.8053 161.677 38.2933 161.677 38.848C161.677 39.3493 161.741 39.816 161.869 40.248C162.002 40.6747 162.215 41.0213 162.509 41.288C162.802 41.5493 163.194 41.68 163.685 41.68ZM169.292 43V34.728H171.156V36.52C171.289 36.1093 171.478 35.76 171.724 35.472C171.974 35.1787 172.268 34.9547 172.604 34.8C172.94 34.6453 173.305 34.568 173.7 34.568C173.796 34.568 173.889 34.5733 173.98 34.584C174.07 34.5947 174.137 34.6133 174.18 34.64V36.504C174.121 36.4773 174.044 36.4587 173.948 36.448C173.857 36.4373 173.777 36.432 173.708 36.432C173.308 36.4 172.953 36.416 172.644 36.48C172.34 36.544 172.081 36.6533 171.868 36.808C171.66 36.9573 171.502 37.1493 171.396 37.384C171.289 37.6133 171.236 37.8827 171.236 38.192V43H169.292ZM180.496 36.104H178.648L178.656 40.848C178.656 41.0933 178.682 41.2747 178.736 41.392C178.794 41.504 178.885 41.5787 179.008 41.616C179.136 41.648 179.306 41.664 179.52 41.664H180.536V42.896C180.429 42.9387 180.266 42.976 180.048 43.008C179.834 43.0453 179.546 43.064 179.184 43.064C178.528 43.064 178.018 42.9787 177.656 42.808C177.298 42.632 177.05 42.384 176.912 42.064C176.773 41.744 176.704 41.3627 176.704 40.92V36.104H175.36V34.728H176.76L177.248 32.272H178.648V34.72H180.496V36.104ZM182.401 43V31.112H184.321V35.928C184.454 35.72 184.63 35.52 184.849 35.328C185.068 35.1307 185.334 34.9707 185.649 34.848C185.969 34.72 186.35 34.656 186.793 34.656C187.321 34.656 187.804 34.7573 188.241 34.96C188.678 35.1627 189.028 35.456 189.289 35.84C189.55 36.2187 189.681 36.672 189.681 37.2V43H187.729V37.528C187.729 37.1013 187.577 36.7707 187.273 36.536C186.974 36.3013 186.596 36.184 186.137 36.184C185.833 36.184 185.542 36.2373 185.265 36.344C184.988 36.4507 184.764 36.6107 184.593 36.824C184.428 37.032 184.345 37.2933 184.345 37.608V43H182.401Z" fill="black"/>
<circle cx="209.5" cy="37" r="6.5" fill="#36B37E"/>
<path d="M277.56 43.16C277 43.16 276.453 43.0907 275.92 42.952C275.387 42.808 274.901 42.5973 274.464 42.32C274.032 42.0373 273.672 41.688 273.384 41.272C273.096 40.8507 272.92 40.36 272.856 39.8H274.872C274.957 40.1893 275.125 40.5173 275.376 40.784C275.627 41.0507 275.939 41.2533 276.312 41.392C276.691 41.5307 277.104 41.6 277.552 41.6C278.032 41.6 278.464 41.536 278.848 41.408C279.237 41.28 279.544 41.0933 279.768 40.848C279.997 40.6027 280.112 40.3013 280.112 39.944C280.112 39.6293 280.029 39.3627 279.864 39.144C279.699 38.9253 279.467 38.7467 279.168 38.608C278.875 38.464 278.531 38.3493 278.136 38.264L276.008 37.8C275.149 37.624 274.469 37.2827 273.968 36.776C273.467 36.2693 273.211 35.5947 273.2 34.752C273.195 34.0533 273.379 33.4453 273.752 32.928C274.131 32.4053 274.645 32.0027 275.296 31.72C275.947 31.432 276.683 31.288 277.504 31.288C278.464 31.288 279.272 31.4453 279.928 31.76C280.589 32.0693 281.088 32.4853 281.424 33.008C281.765 33.5307 281.939 34.104 281.944 34.728H279.976C279.928 34.2693 279.789 33.904 279.56 33.632C279.336 33.36 279.048 33.1653 278.696 33.048C278.344 32.9307 277.955 32.872 277.528 32.872C277.208 32.872 276.909 32.9093 276.632 32.984C276.355 33.0587 276.112 33.168 275.904 33.312C275.696 33.456 275.533 33.632 275.416 33.84C275.304 34.0427 275.248 34.2747 275.248 34.536C275.248 34.9093 275.371 35.2133 275.616 35.448C275.867 35.6773 276.333 35.872 277.016 36.032L279.096 36.496C279.741 36.624 280.261 36.816 280.656 37.072C281.051 37.328 281.352 37.6213 281.56 37.952C281.768 38.2773 281.907 38.6107 281.976 38.952C282.045 39.2933 282.08 39.6187 282.08 39.928C282.08 40.5307 281.893 41.0773 281.52 41.568C281.152 42.0587 280.629 42.448 279.952 42.736C279.28 43.0187 278.483 43.16 277.56 43.16ZM287.442 43.16C286.653 43.16 285.965 42.992 285.378 42.656C284.792 42.3147 284.336 41.8267 284.01 41.192C283.69 40.5573 283.53 39.7947 283.53 38.904C283.53 38.04 283.685 37.2827 283.994 36.632C284.309 35.9813 284.76 35.4747 285.346 35.112C285.933 34.7493 286.634 34.568 287.45 34.568C288.24 34.568 288.925 34.7413 289.506 35.088C290.088 35.4347 290.536 35.9307 290.85 36.576C291.17 37.2213 291.33 37.9973 291.33 38.904C291.33 39.7413 291.178 40.48 290.874 41.12C290.576 41.7547 290.136 42.2533 289.554 42.616C288.978 42.9787 288.274 43.16 287.442 43.16ZM287.45 41.68C287.898 41.68 288.266 41.5573 288.554 41.312C288.848 41.0667 289.064 40.7307 289.202 40.304C289.346 39.8773 289.418 39.392 289.418 38.848C289.418 38.3413 289.354 37.8747 289.226 37.448C289.104 37.0213 288.896 36.68 288.602 36.424C288.314 36.1627 287.93 36.032 287.45 36.032C286.997 36.032 286.621 36.152 286.322 36.392C286.029 36.6267 285.808 36.9573 285.658 37.384C285.514 37.8053 285.442 38.2933 285.442 38.848C285.442 39.3493 285.506 39.816 285.634 40.248C285.768 40.6747 285.981 41.0213 286.274 41.288C286.568 41.5493 286.96 41.68 287.45 41.68ZM295.988 43.16C295.582 43.16 295.19 43.1013 294.812 42.984C294.438 42.8613 294.102 42.6853 293.804 42.456C293.505 42.2213 293.268 41.9333 293.092 41.592C292.916 41.2507 292.828 40.8533 292.828 40.4V34.728H294.78V40.176C294.78 40.624 294.921 40.992 295.204 41.28C295.492 41.568 295.924 41.712 296.5 41.712C297.022 41.712 297.441 41.576 297.756 41.304C298.07 41.0267 298.228 40.6293 298.228 40.112V34.728H300.164V43H298.668L298.452 41.384C298.35 41.8373 298.172 42.1947 297.916 42.456C297.665 42.712 297.369 42.8933 297.028 43C296.692 43.1067 296.345 43.16 295.988 43.16ZM306.949 36.104H305.101L305.109 40.848C305.109 41.0933 305.135 41.2747 305.189 41.392C305.247 41.504 305.338 41.5787 305.461 41.616C305.589 41.648 305.759 41.664 305.973 41.664H306.989V42.896C306.882 42.9387 306.719 42.976 306.501 43.008C306.287 43.0453 305.999 43.064 305.637 43.064C304.981 43.064 304.471 42.9787 304.109 42.808C303.751 42.632 303.503 42.384 303.365 42.064C303.226 41.744 303.157 41.3627 303.157 40.92V36.104H301.813V34.728H303.213L303.701 32.272H305.101V34.72H306.949V36.104ZM308.854 43V31.112H310.774V35.928C310.907 35.72 311.083 35.52 311.302 35.328C311.521 35.1307 311.787 34.9707 312.102 34.848C312.422 34.72 312.803 34.656 313.246 34.656C313.774 34.656 314.257 34.7573 314.694 34.96C315.131 35.1627 315.481 35.456 315.742 35.84C316.003 36.2187 316.134 36.672 316.134 37.2V43H314.182V37.528C314.182 37.1013 314.03 36.7707 313.726 36.536C313.427 36.3013 313.049 36.184 312.59 36.184C312.286 36.184 311.995 36.2373 311.718 36.344C311.441 36.4507 311.217 36.6107 311.046 36.824C310.881 37.032 310.798 37.2933 310.798 37.608V43H308.854Z" fill="black"/>
<circle cx="336.5" cy="37" r="6.5" fill="#FF5630"/>
<path d="M414.056 31.432L410.656 43H409.016L406.68 34.8L404.312 43H402.712L399.336 31.432H401.256L403.6 39.784L405.952 31.432H407.408L409.776 39.784L412.128 31.432H414.056ZM416.241 39.312C416.236 39.7813 416.311 40.1973 416.465 40.56C416.62 40.9227 416.849 41.208 417.153 41.416C417.457 41.6187 417.833 41.72 418.281 41.72C418.74 41.72 419.137 41.6187 419.473 41.416C419.815 41.208 420.041 40.8933 420.153 40.472H421.937C421.841 41.048 421.612 41.536 421.249 41.936C420.887 42.336 420.447 42.64 419.929 42.848C419.417 43.056 418.884 43.16 418.329 43.16C417.529 43.16 416.825 42.992 416.217 42.656C415.615 42.3147 415.143 41.8293 414.801 41.2C414.465 40.5707 414.297 39.8213 414.297 38.952C414.297 38.104 414.452 37.352 414.761 36.696C415.071 36.0347 415.516 35.5147 416.097 35.136C416.684 34.7573 417.388 34.568 418.209 34.568C419.025 34.568 419.711 34.7413 420.265 35.088C420.825 35.4347 421.247 35.92 421.529 36.544C421.817 37.1627 421.961 37.888 421.961 38.72V39.312H416.241ZM416.241 38.104H420.121C420.121 37.704 420.052 37.344 419.913 37.024C419.775 36.6987 419.561 36.4427 419.273 36.256C418.991 36.064 418.633 35.968 418.201 35.968C417.775 35.968 417.415 36.072 417.121 36.28C416.828 36.488 416.607 36.7573 416.457 37.088C416.308 37.4133 416.236 37.752 416.241 38.104ZM426.857 43.16C426.281 43.16 425.734 43.0693 425.217 42.888C424.705 42.7013 424.273 42.4107 423.921 42.016C423.574 41.6213 423.355 41.112 423.265 40.488H424.977C425.051 40.792 425.182 41.04 425.369 41.232C425.561 41.424 425.787 41.5653 426.049 41.656C426.31 41.7413 426.577 41.784 426.849 41.784C427.345 41.784 427.745 41.6987 428.049 41.528C428.358 41.3573 428.513 41.0933 428.513 40.736C428.513 40.4747 428.427 40.2667 428.257 40.112C428.086 39.9573 427.814 39.84 427.441 39.76L425.865 39.4C425.166 39.2453 424.603 38.9893 424.177 38.632C423.755 38.2747 423.542 37.7707 423.537 37.12C423.531 36.6293 423.654 36.192 423.905 35.808C424.155 35.424 424.529 35.1227 425.025 34.904C425.521 34.68 426.134 34.568 426.865 34.568C427.83 34.568 428.603 34.784 429.185 35.216C429.766 35.6427 430.065 36.2533 430.081 37.048H428.425C428.366 36.6907 428.198 36.4133 427.921 36.216C427.643 36.0133 427.283 35.912 426.841 35.912C426.382 35.912 426.006 36 425.713 36.176C425.419 36.352 425.273 36.6213 425.273 36.984C425.273 37.2347 425.385 37.432 425.609 37.576C425.833 37.72 426.169 37.8427 426.617 37.944L428.105 38.304C428.531 38.4107 428.881 38.5547 429.153 38.736C429.425 38.9173 429.638 39.1173 429.793 39.336C429.947 39.5493 430.054 39.7707 430.113 40C430.177 40.224 430.209 40.432 430.209 40.624C430.209 41.1573 430.07 41.6133 429.793 41.992C429.521 42.3653 429.134 42.6533 428.633 42.856C428.131 43.0587 427.539 43.16 426.857 43.16ZM436.558 36.104H434.71L434.718 40.848C434.718 41.0933 434.745 41.2747 434.798 41.392C434.857 41.504 434.947 41.5787 435.07 41.616C435.198 41.648 435.369 41.664 435.582 41.664H436.598V42.896C436.491 42.9387 436.329 42.976 436.11 43.008C435.897 43.0453 435.609 43.064 435.246 43.064C434.59 43.064 434.081 42.9787 433.718 42.808C433.361 42.632 433.113 42.384 432.974 42.064C432.835 41.744 432.766 41.3627 432.766 40.92V36.104H431.422V34.728H432.822L433.31 32.272H434.71V34.72H436.558V36.104Z" fill="black"/>
<circle cx="456.5" cy="37" r="6.5" fill="#3366FF"/>
<path d="M307.41 136.447C307.577 136.667 307.891 136.709 308.111 136.542C308.33 136.375 308.373 136.061 308.205 135.841L307.41 136.447ZM308.205 135.841C307.228 134.558 307.308 133.03 308.188 131.315C309.073 129.589 310.73 127.771 312.708 126.063C314.679 124.362 316.936 122.799 318.982 121.576C321.038 120.349 322.847 119.486 323.925 119.162L323.638 118.204C322.441 118.564 320.547 119.477 318.47 120.718C316.383 121.964 314.077 123.56 312.055 125.306C310.039 127.046 308.27 128.964 307.298 130.859C306.321 132.765 306.111 134.742 307.41 136.447L308.205 135.841Z" fill="#637381"/>
<path d="M333.548 117V116.155V115.719C333.548 115.238 333.637 114.825 333.815 114.478C333.992 114.127 334.229 113.821 334.523 113.561C334.818 113.301 335.141 113.072 335.492 112.872C335.847 112.669 336.198 112.478 336.545 112.3C336.896 112.118 337.219 111.932 337.513 111.741C337.808 111.546 338.044 111.33 338.222 111.091C338.404 110.853 338.495 110.569 338.495 110.24C338.495 109.82 338.345 109.477 338.046 109.213C337.752 108.944 337.351 108.81 336.844 108.81C336.306 108.81 335.862 108.964 335.511 109.271C335.165 109.579 334.959 110.012 334.894 110.571H333.36C333.368 109.999 333.505 109.479 333.769 109.011C334.034 108.543 334.426 108.171 334.946 107.893C335.466 107.612 336.114 107.471 336.889 107.471C337.561 107.471 338.139 107.588 338.625 107.822C339.114 108.052 339.491 108.374 339.756 108.79C340.024 109.202 340.159 109.683 340.159 110.233C340.159 110.714 340.07 111.126 339.892 111.468C339.719 111.811 339.487 112.108 339.197 112.359C338.911 112.606 338.594 112.825 338.248 113.015C337.905 113.206 337.561 113.386 337.214 113.555C336.872 113.72 336.556 113.893 336.265 114.075C335.979 114.253 335.747 114.456 335.57 114.686C335.396 114.916 335.31 115.191 335.31 115.511V115.648H340.178V117H333.548ZM344.906 107.471C345.981 107.471 346.83 107.885 347.454 108.712C348.083 109.536 348.397 110.738 348.397 112.32C348.397 113.893 348.085 115.091 347.461 115.914C346.841 116.733 345.987 117.143 344.9 117.143C343.812 117.143 342.956 116.733 342.332 115.914C341.713 115.095 341.403 113.902 341.403 112.333C341.403 111.276 341.546 110.387 341.832 109.668C342.118 108.944 342.523 108.398 343.047 108.03C343.572 107.657 344.191 107.471 344.906 107.471ZM344.906 115.823C345.517 115.823 345.972 115.553 346.271 115.011C346.57 114.469 346.72 113.574 346.72 112.326C346.72 111.052 346.568 110.138 346.265 109.583C345.961 109.029 345.506 108.751 344.9 108.751C344.293 108.751 343.834 109.031 343.522 109.59C343.214 110.149 343.06 111.061 343.06 112.326C343.06 113.57 343.214 114.465 343.522 115.011C343.834 115.553 344.295 115.823 344.906 115.823ZM356.659 107.471C357.348 107.471 357.959 107.612 358.492 107.893C359.025 108.171 359.454 108.548 359.779 109.024C360.109 109.501 360.304 110.032 360.364 110.617H358.694C358.629 110.27 358.507 109.96 358.33 109.688C358.156 109.414 357.927 109.198 357.641 109.037C357.355 108.877 357.012 108.797 356.614 108.797C356.115 108.797 355.691 108.916 355.34 109.154C354.993 109.388 354.727 109.761 354.54 110.272C354.358 110.784 354.267 111.447 354.267 112.261C354.267 113.496 354.471 114.396 354.878 114.959C355.286 115.522 355.864 115.804 356.614 115.804C357.012 115.804 357.355 115.717 357.641 115.544C357.927 115.366 358.156 115.132 358.33 114.842C358.507 114.547 358.629 114.227 358.694 113.88H360.364C360.312 114.305 360.204 114.712 360.039 115.102C359.879 115.492 359.651 115.841 359.357 116.148C359.062 116.452 358.692 116.692 358.245 116.87C357.803 117.043 357.275 117.13 356.659 117.13C355.797 117.13 355.056 116.933 354.436 116.538C353.821 116.14 353.346 115.576 353.013 114.848C352.683 114.116 352.519 113.247 352.519 112.242C352.519 111.241 352.683 110.385 353.013 109.674C353.342 108.964 353.814 108.42 354.43 108.043C355.049 107.662 355.793 107.471 356.659 107.471ZM363.85 117.098C363.416 117.098 363.07 117.043 362.81 116.935C362.55 116.827 362.355 116.681 362.225 116.499C362.095 116.317 362.01 116.114 361.971 115.888C361.932 115.659 361.913 115.425 361.913 115.186V107.341H363.46V115.004C363.46 115.295 363.518 115.52 363.635 115.68C363.756 115.841 363.951 115.934 364.22 115.96L364.558 115.973V116.967C364.441 117.002 364.322 117.033 364.201 117.059C364.079 117.085 363.962 117.098 363.85 117.098ZM367.569 110.279V117H366.048V110.279H367.569ZM367.588 107.607V109.102H366.022V107.607H367.588ZM370.721 114.003C370.716 114.385 370.777 114.723 370.903 115.017C371.028 115.312 371.215 115.544 371.462 115.713C371.709 115.878 372.014 115.96 372.378 115.96C372.751 115.96 373.074 115.878 373.347 115.713C373.624 115.544 373.808 115.288 373.899 114.946H375.349C375.271 115.414 375.084 115.81 374.79 116.135C374.495 116.46 374.137 116.707 373.717 116.876C373.301 117.046 372.868 117.13 372.417 117.13C371.767 117.13 371.195 116.994 370.701 116.72C370.211 116.443 369.828 116.049 369.551 115.537C369.278 115.026 369.141 114.417 369.141 113.711C369.141 113.022 369.267 112.411 369.518 111.878C369.769 111.341 370.131 110.918 370.604 110.61C371.08 110.303 371.652 110.149 372.32 110.149C372.983 110.149 373.539 110.29 373.99 110.571C374.445 110.853 374.787 111.247 375.017 111.754C375.251 112.257 375.368 112.846 375.368 113.522V114.003H370.721ZM370.721 113.022H373.873C373.873 112.697 373.817 112.404 373.704 112.144C373.591 111.88 373.418 111.672 373.184 111.52C372.954 111.364 372.664 111.286 372.313 111.286C371.966 111.286 371.674 111.371 371.436 111.54C371.197 111.709 371.017 111.928 370.896 112.196C370.775 112.461 370.716 112.736 370.721 113.022ZM376.842 117V110.279H378.389V111.241C378.493 111.068 378.634 110.901 378.812 110.74C378.994 110.58 379.217 110.45 379.481 110.35C379.746 110.251 380.055 110.201 380.411 110.201C380.827 110.201 381.212 110.283 381.568 110.448C381.927 110.613 382.216 110.87 382.432 111.221C382.653 111.572 382.764 112.025 382.764 112.58V117H381.178V112.768C381.178 112.326 381.056 111.999 380.814 111.787C380.571 111.57 380.266 111.462 379.897 111.462C379.646 111.462 379.408 111.505 379.182 111.592C378.957 111.674 378.773 111.802 378.63 111.975C378.491 112.144 378.422 112.357 378.422 112.612V117H376.842ZM387.939 111.397H386.437L386.444 115.251C386.444 115.451 386.465 115.598 386.509 115.693C386.556 115.784 386.63 115.845 386.73 115.875C386.834 115.901 386.972 115.914 387.146 115.914H387.971V116.915C387.885 116.95 387.752 116.98 387.575 117.007C387.401 117.037 387.167 117.052 386.873 117.052C386.34 117.052 385.926 116.983 385.631 116.844C385.341 116.701 385.139 116.499 385.027 116.239C384.914 115.979 384.858 115.67 384.858 115.31V111.397H383.766V110.279H384.903L385.3 108.283H386.437V110.272H387.939V111.397ZM391.977 117.13C391.509 117.13 391.065 117.056 390.645 116.909C390.229 116.757 389.878 116.521 389.592 116.2C389.31 115.88 389.132 115.466 389.059 114.959H390.45C390.51 115.206 390.617 115.407 390.768 115.563C390.924 115.719 391.108 115.834 391.321 115.908C391.533 115.977 391.75 116.012 391.971 116.012C392.374 116.012 392.699 115.943 392.946 115.804C393.197 115.665 393.323 115.451 393.323 115.16C393.323 114.948 393.253 114.779 393.115 114.653C392.976 114.528 392.755 114.432 392.452 114.367L391.171 114.075C390.604 113.949 390.146 113.741 389.8 113.451C389.457 113.161 389.284 112.751 389.28 112.222C389.275 111.824 389.375 111.468 389.579 111.156C389.782 110.844 390.086 110.6 390.489 110.422C390.892 110.24 391.39 110.149 391.984 110.149C392.768 110.149 393.396 110.324 393.869 110.675C394.341 111.022 394.584 111.518 394.597 112.164H393.251C393.204 111.874 393.067 111.648 392.842 111.488C392.616 111.323 392.324 111.241 391.964 111.241C391.592 111.241 391.286 111.312 391.048 111.455C390.809 111.598 390.69 111.817 390.69 112.112C390.69 112.316 390.781 112.476 390.963 112.593C391.145 112.71 391.418 112.81 391.782 112.892L392.991 113.184C393.338 113.271 393.622 113.388 393.843 113.535C394.064 113.683 394.237 113.845 394.363 114.023C394.488 114.196 394.575 114.376 394.623 114.562C394.675 114.744 394.701 114.913 394.701 115.069C394.701 115.503 394.588 115.873 394.363 116.181C394.142 116.484 393.828 116.718 393.42 116.883C393.013 117.048 392.532 117.13 391.977 117.13Z" fill="black"/>
<path d="M346.816 140.828L347.372 140.642L347.1 139.827L346.44 140.377L346.816 140.828ZM347.988 144.345L347.432 144.53L347.721 145.396L348.388 144.773L347.988 144.345ZM357.367 136.158C357.378 135.835 357.125 135.563 356.801 135.552L351.529 135.37C351.205 135.359 350.934 135.612 350.923 135.936C350.912 136.259 351.165 136.531 351.488 136.542L356.175 136.704L356.014 141.39C356.002 141.714 356.256 141.985 356.579 141.997C356.903 142.008 357.174 141.754 357.185 141.431L357.367 136.158ZM340.157 147.14L347.191 141.278L346.44 140.377L339.406 146.239L340.157 147.14ZM346.26 141.013L347.432 144.53L348.544 144.159L347.372 140.642L346.26 141.013ZM348.388 144.773L357.181 136.566L356.381 135.709L347.588 143.916L348.388 144.773Z" fill="#1939B7"/>
<path d="M367.907 140.506H370.217C370.913 140.506 371.427 140.382 371.759 140.134C372.095 139.886 372.263 139.474 372.263 138.898C372.263 138.402 372.111 138.034 371.807 137.794C371.507 137.554 371.059 137.434 370.463 137.434H367.907V136.738H370.613C371.549 136.738 372.277 136.926 372.797 137.302C373.321 137.674 373.583 138.214 373.583 138.922C373.583 139.358 373.499 139.724 373.331 140.02C373.167 140.316 372.955 140.556 372.695 140.74C372.439 140.924 372.171 141.062 371.891 141.154C371.835 141.17 371.821 141.214 371.849 141.286L373.439 145.414H372.065L370.601 141.376H367.907V140.506ZM374.555 136.732V137.386L367.919 137.392V136.738L374.555 136.732ZM374.555 138.562V139.222L367.919 139.228V138.574L374.555 138.562ZM376.205 136.738H381.383L381.353 137.698H377.153L376.931 140.5C377.219 140.232 377.533 140.042 377.873 139.93C378.217 139.814 378.589 139.756 378.989 139.756C379.513 139.756 379.995 139.864 380.435 140.08C380.879 140.292 381.235 140.608 381.503 141.028C381.771 141.444 381.905 141.96 381.905 142.576C381.905 143.176 381.775 143.698 381.515 144.142C381.255 144.586 380.889 144.932 380.417 145.18C379.945 145.424 379.391 145.546 378.755 145.546C378.219 145.546 377.723 145.452 377.267 145.264C376.811 145.076 376.419 144.814 376.091 144.478C375.767 144.142 375.529 143.756 375.377 143.32L376.337 142.918C376.481 143.246 376.661 143.538 376.877 143.794C377.097 144.05 377.357 144.25 377.657 144.394C377.957 144.538 378.297 144.61 378.677 144.61C379.293 144.61 379.787 144.432 380.159 144.076C380.535 143.716 380.723 143.228 380.723 142.612C380.723 142.228 380.635 141.894 380.459 141.61C380.283 141.322 380.045 141.098 379.745 140.938C379.449 140.778 379.121 140.698 378.761 140.698C378.525 140.698 378.305 140.72 378.101 140.764C377.897 140.804 377.695 140.884 377.495 141.004C377.295 141.124 377.085 141.306 376.865 141.55C376.841 141.562 376.823 141.568 376.811 141.568C376.799 141.564 376.779 141.556 376.751 141.544L375.815 141.25L376.205 136.738ZM386.166 136.618C387.106 136.618 387.854 136.996 388.41 137.752C388.97 138.504 389.25 139.618 389.25 141.094C389.25 142.562 388.972 143.672 388.416 144.424C387.86 145.172 387.106 145.546 386.154 145.546C385.206 145.546 384.454 145.174 383.898 144.43C383.342 143.682 383.064 142.576 383.064 141.112C383.064 140.124 383.192 139.296 383.448 138.628C383.704 137.96 384.064 137.458 384.528 137.122C384.992 136.786 385.538 136.618 386.166 136.618ZM386.166 144.586C386.786 144.586 387.254 144.314 387.57 143.77C387.89 143.222 388.05 142.332 388.05 141.1C388.05 139.844 387.888 138.94 387.564 138.388C387.244 137.832 386.776 137.554 386.16 137.554C385.548 137.554 385.076 137.834 384.744 138.394C384.416 138.95 384.252 139.852 384.252 141.1C384.252 142.328 384.416 143.216 384.744 143.764C385.072 144.312 385.546 144.586 386.166 144.586ZM393.444 136.618C394.384 136.618 395.132 136.996 395.688 137.752C396.248 138.504 396.528 139.618 396.528 141.094C396.528 142.562 396.25 143.672 395.694 144.424C395.138 145.172 394.384 145.546 393.432 145.546C392.484 145.546 391.732 145.174 391.176 144.43C390.62 143.682 390.342 142.576 390.342 141.112C390.342 140.124 390.47 139.296 390.726 138.628C390.982 137.96 391.342 137.458 391.806 137.122C392.27 136.786 392.816 136.618 393.444 136.618ZM393.444 144.586C394.064 144.586 394.532 144.314 394.848 143.77C395.168 143.222 395.328 142.332 395.328 141.1C395.328 139.844 395.166 138.94 394.842 138.388C394.522 137.832 394.054 137.554 393.438 137.554C392.826 137.554 392.354 137.834 392.022 138.394C391.694 138.95 391.53 139.852 391.53 141.1C391.53 142.328 391.694 143.216 392.022 143.764C392.35 144.312 392.824 144.586 393.444 144.586ZM400.721 136.618C401.661 136.618 402.409 136.996 402.965 137.752C403.525 138.504 403.805 139.618 403.805 141.094C403.805 142.562 403.527 143.672 402.971 144.424C402.415 145.172 401.661 145.546 400.709 145.546C399.761 145.546 399.009 145.174 398.453 144.43C397.897 143.682 397.619 142.576 397.619 141.112C397.619 140.124 397.747 139.296 398.003 138.628C398.259 137.96 398.619 137.458 399.083 137.122C399.547 136.786 400.093 136.618 400.721 136.618ZM400.721 144.586C401.341 144.586 401.809 144.314 402.125 143.77C402.445 143.222 402.605 142.332 402.605 141.1C402.605 139.844 402.443 138.94 402.119 138.388C401.799 137.832 401.331 137.554 400.715 137.554C400.103 137.554 399.631 137.834 399.299 138.394C398.971 138.95 398.807 139.852 398.807 141.1C398.807 142.328 398.971 143.216 399.299 143.764C399.627 144.312 400.101 144.586 400.721 144.586ZM407.998 136.618C408.938 136.618 409.686 136.996 410.242 137.752C410.802 138.504 411.082 139.618 411.082 141.094C411.082 142.562 410.804 143.672 410.248 144.424C409.692 145.172 408.938 145.546 407.986 145.546C407.038 145.546 406.286 145.174 405.73 144.43C405.174 143.682 404.896 142.576 404.896 141.112C404.896 140.124 405.024 139.296 405.28 138.628C405.536 137.96 405.896 137.458 406.36 137.122C406.824 136.786 407.37 136.618 407.998 136.618ZM407.998 144.586C408.618 144.586 409.086 144.314 409.402 143.77C409.722 143.222 409.882 142.332 409.882 141.1C409.882 139.844 409.72 138.94 409.396 138.388C409.076 137.832 408.608 137.554 407.992 137.554C407.38 137.554 406.908 137.834 406.576 138.394C406.248 138.95 406.084 139.852 406.084 141.1C406.084 142.328 406.248 143.216 406.576 143.764C406.904 144.312 407.378 144.586 407.998 144.586ZM415.276 136.618C416.216 136.618 416.964 136.996 417.52 137.752C418.08 138.504 418.36 139.618 418.36 141.094C418.36 142.562 418.082 143.672 417.526 144.424C416.97 145.172 416.216 145.546 415.264 145.546C414.316 145.546 413.564 145.174 413.008 144.43C412.452 143.682 412.174 142.576 412.174 141.112C412.174 140.124 412.302 139.296 412.558 138.628C412.814 137.96 413.174 137.458 413.638 137.122C414.102 136.786 414.648 136.618 415.276 136.618ZM415.276 144.586C415.896 144.586 416.364 144.314 416.68 143.77C417 143.222 417.16 142.332 417.16 141.1C417.16 139.844 416.998 138.94 416.674 138.388C416.354 137.832 415.886 137.554 415.27 137.554C414.658 137.554 414.186 137.834 413.854 138.394C413.526 138.95 413.362 139.852 413.362 141.1C413.362 142.328 413.526 143.216 413.854 143.764C414.182 144.312 414.656 144.586 415.276 144.586Z" fill="#091A7A"/>
<rect x="329.281" y="96.5" width="94" height="61.8276" rx="10.5" stroke="#DFE3E8"/>
<path d="M350.095 349.552C349.824 349.499 349.562 349.676 349.509 349.947C349.457 350.218 349.634 350.481 349.905 350.533L350.095 349.552ZM349.905 350.533C353.601 351.251 358.197 352.913 362.185 354.9C364.177 355.892 366.007 356.959 367.489 358.021C368.98 359.091 370.083 360.128 370.663 361.051L371.509 360.519C370.826 359.432 369.598 358.303 368.071 357.209C366.535 356.107 364.657 355.013 362.631 354.004C358.583 351.988 353.9 350.29 350.095 349.552L349.905 350.533Z" fill="#637381"/>
<path d="M396.127 335.601H401.97L401.912 336.92H397.414L397.199 339.533C397.533 339.299 397.869 339.13 398.207 339.026C398.545 338.922 398.917 338.87 399.325 338.87C399.923 338.87 400.467 338.987 400.956 339.221C401.446 339.455 401.836 339.8 402.126 340.255C402.417 340.71 402.562 341.267 402.562 341.925C402.562 342.584 402.414 343.154 402.12 343.635C401.829 344.116 401.418 344.489 400.885 344.753C400.356 345.013 399.73 345.143 399.006 345.143C398.408 345.143 397.851 345.046 397.336 344.85C396.824 344.651 396.382 344.378 396.01 344.031C395.641 343.685 395.366 343.288 395.184 342.842L396.465 342.166C396.625 342.487 396.816 342.775 397.037 343.03C397.262 343.286 397.524 343.488 397.823 343.635C398.127 343.778 398.473 343.849 398.863 343.849C399.474 343.849 399.964 343.68 400.332 343.342C400.705 343 400.891 342.545 400.891 341.977C400.891 341.626 400.805 341.314 400.631 341.041C400.462 340.768 400.23 340.556 399.936 340.404C399.645 340.248 399.314 340.17 398.941 340.17C398.72 340.17 398.512 340.19 398.317 340.229C398.127 340.268 397.934 340.342 397.739 340.45C397.544 340.554 397.334 340.712 397.108 340.924C397.065 340.946 397.032 340.957 397.011 340.957C396.993 340.953 396.961 340.94 396.913 340.918L395.698 340.424L396.127 335.601ZM410.822 335.471C411.511 335.471 412.122 335.612 412.655 335.893C413.188 336.171 413.617 336.548 413.942 337.024C414.271 337.501 414.466 338.032 414.527 338.617H412.856C412.791 338.27 412.67 337.96 412.492 337.688C412.319 337.414 412.089 337.198 411.803 337.037C411.517 336.877 411.175 336.797 410.776 336.797C410.278 336.797 409.853 336.916 409.502 337.154C409.155 337.388 408.889 337.761 408.703 338.272C408.521 338.784 408.43 339.447 408.43 340.261C408.43 341.496 408.633 342.396 409.041 342.959C409.448 343.522 410.026 343.804 410.776 343.804C411.175 343.804 411.517 343.717 411.803 343.544C412.089 343.366 412.319 343.132 412.492 342.842C412.67 342.547 412.791 342.227 412.856 341.88H414.527C414.475 342.305 414.366 342.712 414.202 343.102C414.041 343.492 413.814 343.841 413.519 344.148C413.224 344.452 412.854 344.692 412.408 344.87C411.966 345.043 411.437 345.13 410.822 345.13C409.959 345.13 409.218 344.933 408.599 344.538C407.983 344.14 407.509 343.576 407.175 342.848C406.846 342.116 406.681 341.247 406.681 340.242C406.681 339.241 406.846 338.385 407.175 337.674C407.504 336.964 407.977 336.42 408.592 336.043C409.212 335.662 409.955 335.471 410.822 335.471ZM418.012 345.098C417.579 345.098 417.232 345.043 416.972 344.935C416.712 344.827 416.517 344.681 416.387 344.499C416.257 344.317 416.172 344.114 416.133 343.888C416.094 343.659 416.075 343.425 416.075 343.186V335.341H417.622V343.004C417.622 343.295 417.68 343.52 417.797 343.68C417.919 343.841 418.114 343.934 418.382 343.96L418.72 343.973V344.967C418.603 345.002 418.484 345.033 418.363 345.059C418.242 345.085 418.125 345.098 418.012 345.098ZM421.731 338.279V345H420.21V338.279H421.731ZM421.75 335.607V337.102H420.184V335.607H421.75ZM424.883 342.003C424.879 342.385 424.939 342.723 425.065 343.017C425.191 343.312 425.377 343.544 425.624 343.713C425.871 343.878 426.176 343.96 426.54 343.96C426.913 343.96 427.236 343.878 427.509 343.713C427.786 343.544 427.97 343.288 428.061 342.946H429.511C429.433 343.414 429.247 343.81 428.952 344.135C428.657 344.46 428.3 344.707 427.879 344.876C427.463 345.046 427.03 345.13 426.579 345.13C425.929 345.13 425.357 344.994 424.863 344.72C424.374 344.443 423.99 344.049 423.713 343.537C423.44 343.026 423.303 342.417 423.303 341.711C423.303 341.022 423.429 340.411 423.68 339.878C423.932 339.341 424.294 338.918 424.766 338.61C425.243 338.303 425.815 338.149 426.482 338.149C427.145 338.149 427.702 338.29 428.152 338.571C428.607 338.853 428.95 339.247 429.179 339.754C429.413 340.257 429.53 340.846 429.53 341.522V342.003H424.883ZM424.883 341.022H428.035C428.035 340.697 427.979 340.404 427.866 340.144C427.754 339.88 427.58 339.672 427.346 339.52C427.117 339.364 426.826 339.286 426.475 339.286C426.129 339.286 425.836 339.371 425.598 339.54C425.36 339.709 425.18 339.928 425.058 340.196C424.937 340.461 424.879 340.736 424.883 341.022ZM431.005 345V338.279H432.552V339.241C432.656 339.068 432.796 338.901 432.974 338.74C433.156 338.58 433.379 338.45 433.644 338.35C433.908 338.251 434.218 338.201 434.573 338.201C434.989 338.201 435.375 338.283 435.73 338.448C436.09 338.613 436.378 338.87 436.595 339.221C436.816 339.572 436.926 340.025 436.926 340.58V345H435.34V340.768C435.34 340.326 435.219 339.999 434.976 339.787C434.733 339.57 434.428 339.462 434.06 339.462C433.808 339.462 433.57 339.505 433.345 339.592C433.119 339.674 432.935 339.802 432.792 339.975C432.653 340.144 432.584 340.357 432.584 340.612V345H431.005ZM442.101 339.397H440.6L440.606 343.251C440.606 343.451 440.628 343.598 440.671 343.693C440.719 343.784 440.792 343.845 440.892 343.875C440.996 343.901 441.135 343.914 441.308 343.914H442.134V344.915C442.047 344.95 441.915 344.98 441.737 345.007C441.564 345.037 441.33 345.052 441.035 345.052C440.502 345.052 440.088 344.983 439.794 344.844C439.503 344.701 439.302 344.499 439.189 344.239C439.076 343.979 439.02 343.67 439.02 343.31V339.397H437.928V338.279H439.066L439.462 336.283H440.6V338.272H442.101V339.397ZM446.14 345.13C445.672 345.13 445.227 345.056 444.807 344.909C444.391 344.757 444.04 344.521 443.754 344.2C443.472 343.88 443.295 343.466 443.221 342.959H444.612C444.673 343.206 444.779 343.407 444.931 343.563C445.087 343.719 445.271 343.834 445.483 343.908C445.695 343.977 445.912 344.012 446.133 344.012C446.536 344.012 446.861 343.943 447.108 343.804C447.359 343.665 447.485 343.451 447.485 343.16C447.485 342.948 447.416 342.779 447.277 342.653C447.138 342.528 446.917 342.432 446.614 342.367L445.334 342.075C444.766 341.949 444.309 341.741 443.962 341.451C443.62 341.161 443.446 340.751 443.442 340.222C443.438 339.824 443.537 339.468 443.741 339.156C443.945 338.844 444.248 338.6 444.651 338.422C445.054 338.24 445.552 338.149 446.146 338.149C446.93 338.149 447.559 338.324 448.031 338.675C448.503 339.022 448.746 339.518 448.759 340.164H447.414C447.366 339.874 447.229 339.648 447.004 339.488C446.779 339.323 446.486 339.241 446.127 339.241C445.754 339.241 445.448 339.312 445.21 339.455C444.972 339.598 444.853 339.817 444.853 340.112C444.853 340.316 444.944 340.476 445.126 340.593C445.308 340.71 445.581 340.81 445.945 340.892L447.154 341.184C447.5 341.271 447.784 341.388 448.005 341.535C448.226 341.683 448.399 341.845 448.525 342.023C448.651 342.196 448.737 342.376 448.785 342.562C448.837 342.744 448.863 342.913 448.863 343.069C448.863 343.503 448.75 343.873 448.525 344.181C448.304 344.484 447.99 344.718 447.583 344.883C447.175 345.048 446.694 345.13 446.14 345.13Z" fill="black"/>
<path d="M394.121 368.828L394.677 368.642L394.405 367.827L393.745 368.377L394.121 368.828ZM395.293 372.345L394.737 372.53L395.026 373.396L395.693 372.773L395.293 372.345ZM404.672 364.158C404.683 363.835 404.43 363.563 404.106 363.552L398.834 363.37C398.51 363.359 398.239 363.612 398.228 363.936C398.216 364.259 398.47 364.531 398.793 364.542L403.48 364.704L403.319 369.39C403.307 369.714 403.561 369.985 403.884 369.997C404.208 370.008 404.479 369.754 404.49 369.431L404.672 364.158ZM387.461 375.14L394.496 369.278L393.745 368.377L386.711 374.239L387.461 375.14ZM393.565 369.013L394.737 372.53L395.849 372.159L394.677 368.642L393.565 369.013ZM395.693 372.773L404.486 364.566L403.686 363.709L394.893 371.916L395.693 372.773Z" fill="#1939B7"/>
<path d="M415.212 368.506H417.522C418.218 368.506 418.732 368.382 419.064 368.134C419.4 367.886 419.568 367.474 419.568 366.898C419.568 366.402 419.416 366.034 419.112 365.794C418.812 365.554 418.364 365.434 417.768 365.434H415.212V364.738H417.918C418.854 364.738 419.582 364.926 420.102 365.302C420.626 365.674 420.888 366.214 420.888 366.922C420.888 367.358 420.804 367.724 420.636 368.02C420.472 368.316 420.26 368.556 420 368.74C419.744 368.924 419.476 369.062 419.196 369.154C419.14 369.17 419.126 369.214 419.154 369.286L420.744 373.414H419.37L417.906 369.376H415.212V368.506ZM421.86 364.732V365.386L415.224 365.392V364.738L421.86 364.732ZM421.86 366.562V367.222L415.224 367.228V366.574L421.86 366.562ZM424.338 373.414V366.508H422.664V365.782C423.184 365.782 423.588 365.744 423.876 365.668C424.164 365.592 424.368 365.476 424.488 365.32C424.612 365.164 424.68 364.97 424.692 364.738H425.484V373.414H424.338ZM430.67 364.618C431.61 364.618 432.358 364.996 432.914 365.752C433.474 366.504 433.754 367.618 433.754 369.094C433.754 370.562 433.476 371.672 432.92 372.424C432.364 373.172 431.61 373.546 430.658 373.546C429.71 373.546 428.958 373.174 428.402 372.43C427.846 371.682 427.568 370.576 427.568 369.112C427.568 368.124 427.696 367.296 427.952 366.628C428.208 365.96 428.568 365.458 429.032 365.122C429.496 364.786 430.042 364.618 430.67 364.618ZM430.67 372.586C431.29 372.586 431.758 372.314 432.074 371.77C432.394 371.222 432.554 370.332 432.554 369.1C432.554 367.844 432.392 366.94 432.068 366.388C431.748 365.832 431.28 365.554 430.664 365.554C430.052 365.554 429.58 365.834 429.248 366.394C428.92 366.95 428.756 367.852 428.756 369.1C428.756 370.328 428.92 371.216 429.248 371.764C429.576 372.312 430.05 372.586 430.67 372.586ZM437.948 364.618C438.888 364.618 439.636 364.996 440.192 365.752C440.752 366.504 441.032 367.618 441.032 369.094C441.032 370.562 440.754 371.672 440.198 372.424C439.642 373.172 438.888 373.546 437.936 373.546C436.988 373.546 436.236 373.174 435.68 372.43C435.124 371.682 434.846 370.576 434.846 369.112C434.846 368.124 434.974 367.296 435.23 366.628C435.486 365.96 435.846 365.458 436.31 365.122C436.774 364.786 437.32 364.618 437.948 364.618ZM437.948 372.586C438.568 372.586 439.036 372.314 439.352 371.77C439.672 371.222 439.832 370.332 439.832 369.1C439.832 367.844 439.67 366.94 439.346 366.388C439.026 365.832 438.558 365.554 437.942 365.554C437.33 365.554 436.858 365.834 436.526 366.394C436.198 366.95 436.034 367.852 436.034 369.1C436.034 370.328 436.198 371.216 436.526 371.764C436.854 372.312 437.328 372.586 437.948 372.586ZM445.225 364.618C446.165 364.618 446.913 364.996 447.469 365.752C448.029 366.504 448.309 367.618 448.309 369.094C448.309 370.562 448.031 371.672 447.475 372.424C446.919 373.172 446.165 373.546 445.213 373.546C444.265 373.546 443.513 373.174 442.957 372.43C442.401 371.682 442.123 370.576 442.123 369.112C442.123 368.124 442.251 367.296 442.507 366.628C442.763 365.96 443.123 365.458 443.587 365.122C444.051 364.786 444.597 364.618 445.225 364.618ZM445.225 372.586C445.845 372.586 446.313 372.314 446.629 371.77C446.949 371.222 447.109 370.332 447.109 369.1C447.109 367.844 446.947 366.94 446.623 366.388C446.303 365.832 445.835 365.554 445.219 365.554C444.607 365.554 444.135 365.834 443.803 366.394C443.475 366.95 443.311 367.852 443.311 369.1C443.311 370.328 443.475 371.216 443.803 371.764C444.131 372.312 444.605 372.586 445.225 372.586ZM452.502 364.618C453.442 364.618 454.19 364.996 454.746 365.752C455.306 366.504 455.586 367.618 455.586 369.094C455.586 370.562 455.308 371.672 454.752 372.424C454.196 373.172 453.442 373.546 452.49 373.546C451.542 373.546 450.79 373.174 450.234 372.43C449.678 371.682 449.4 370.576 449.4 369.112C449.4 368.124 449.528 367.296 449.784 366.628C450.04 365.96 450.4 365.458 450.864 365.122C451.328 364.786 451.874 364.618 452.502 364.618ZM452.502 372.586C453.122 372.586 453.59 372.314 453.906 371.77C454.226 371.222 454.386 370.332 454.386 369.1C454.386 367.844 454.224 366.94 453.9 366.388C453.58 365.832 453.112 365.554 452.496 365.554C451.884 365.554 451.412 365.834 451.08 366.394C450.752 366.95 450.588 367.852 450.588 369.1C450.588 370.328 450.752 371.216 451.08 371.764C451.408 372.312 451.882 372.586 452.502 372.586ZM459.78 364.618C460.72 364.618 461.468 364.996 462.024 365.752C462.584 366.504 462.864 367.618 462.864 369.094C462.864 370.562 462.586 371.672 462.03 372.424C461.474 373.172 460.72 373.546 459.768 373.546C458.82 373.546 458.068 373.174 457.512 372.43C456.956 371.682 456.678 370.576 456.678 369.112C456.678 368.124 456.806 367.296 457.062 366.628C457.318 365.96 457.678 365.458 458.142 365.122C458.606 364.786 459.152 364.618 459.78 364.618ZM459.78 372.586C460.4 372.586 460.868 372.314 461.184 371.77C461.504 371.222 461.664 370.332 461.664 369.1C461.664 367.844 461.502 366.94 461.178 366.388C460.858 365.832 460.39 365.554 459.774 365.554C459.162 365.554 458.69 365.834 458.358 366.394C458.03 366.95 457.866 367.852 457.866 369.1C457.866 370.328 458.03 371.216 458.358 371.764C458.686 372.312 459.16 372.586 459.78 372.586Z" fill="#091A7A"/>
<rect x="376.586" y="324.5" width="91" height="61.8276" rx="10.5" stroke="#DFE3E8"/>
<path d="M68.42 356.471C68.9747 356.471 69.4882 356.575 69.9605 356.783C70.4328 356.987 70.8207 357.281 71.124 357.667C71.4273 358.053 71.605 358.518 71.657 359.064H70.1945C70.0732 358.644 69.8652 358.319 69.5705 358.089C69.2758 357.86 68.9032 357.745 68.4525 357.745C67.9542 357.745 67.5382 357.886 67.2045 358.167C66.8708 358.449 66.6303 358.854 66.483 359.383C66.34 359.907 66.2945 360.536 66.3465 361.268C66.4808 361.012 66.6628 360.791 66.8925 360.605C67.1222 360.414 67.3843 360.267 67.679 360.163C67.9737 360.059 68.2857 360.007 68.615 360.007C69.2433 360.007 69.7937 360.126 70.266 360.364C70.7383 360.603 71.1067 360.941 71.371 361.378C71.6353 361.816 71.7675 362.334 71.7675 362.932C71.7675 363.552 71.6245 364.104 71.3385 364.589C71.0525 365.07 70.6517 365.45 70.136 365.727C69.6203 366.004 69.018 366.143 68.329 366.143C67.562 366.143 66.899 365.952 66.34 365.571C65.781 365.19 65.3498 364.65 65.0465 363.952C64.7475 363.25 64.598 362.421 64.598 361.463C64.598 360.445 64.7475 359.563 65.0465 358.817C65.3455 358.068 65.7788 357.489 66.3465 357.082C66.9185 356.675 67.6097 356.471 68.42 356.471ZM68.2835 361.222C67.9845 361.222 67.6942 361.292 67.4125 361.43C67.1352 361.569 66.9077 361.749 66.73 361.97C66.5567 362.191 66.47 362.427 66.47 362.678C66.4657 363.125 66.5393 363.515 66.691 363.848C66.8427 364.182 67.055 364.442 67.328 364.628C67.6053 364.81 67.926 364.901 68.29 364.901C68.628 364.901 68.9313 364.821 69.2 364.661C69.473 364.501 69.6875 364.277 69.8435 363.991C70.0038 363.705 70.084 363.376 70.084 363.003C70.084 362.622 70.0103 362.299 69.863 362.035C69.7157 361.771 69.5055 361.569 69.2325 361.43C68.9638 361.292 68.6475 361.222 68.2835 361.222ZM80.0197 356.471C80.7087 356.471 81.3197 356.612 81.8527 356.893C82.3857 357.171 82.8147 357.548 83.1397 358.024C83.469 358.501 83.664 359.032 83.7247 359.617H82.0542C81.9892 359.27 81.8678 358.96 81.6902 358.688C81.5168 358.414 81.2872 358.198 81.0012 358.037C80.7152 357.877 80.3728 357.797 79.9742 357.797C79.4758 357.797 79.0512 357.916 78.7002 358.154C78.3535 358.388 78.087 358.761 77.9007 359.272C77.7187 359.784 77.6277 360.447 77.6277 361.261C77.6277 362.496 77.8313 363.396 78.2387 363.959C78.646 364.522 79.2245 364.804 79.9742 364.804C80.3728 364.804 80.7152 364.717 81.0012 364.544C81.2872 364.366 81.5168 364.132 81.6902 363.842C81.8678 363.547 81.9892 363.227 82.0542 362.88H83.7247C83.6727 363.305 83.5643 363.712 83.3997 364.102C83.2393 364.492 83.0118 364.841 82.7172 365.148C82.4225 365.452 82.052 365.692 81.6057 365.87C81.1637 366.043 80.635 366.13 80.0197 366.13C79.1573 366.13 78.4163 365.933 77.7967 365.538C77.1813 365.14 76.7068 364.576 76.3732 363.848C76.0438 363.116 75.8792 362.247 75.8792 361.242C75.8792 360.241 76.0438 359.385 76.3732 358.674C76.7025 357.964 77.1748 357.42 77.7902 357.043C78.4098 356.662 79.153 356.471 80.0197 356.471ZM87.21 366.098C86.7766 366.098 86.43 366.043 86.17 365.935C85.91 365.827 85.715 365.681 85.585 365.499C85.455 365.317 85.3705 365.114 85.3315 364.888C85.2925 364.659 85.273 364.425 85.273 364.186V356.341H86.82V364.004C86.82 364.295 86.8785 364.52 86.9955 364.68C87.1168 364.841 87.3118 364.934 87.5805 364.96L87.9185 364.973V365.967C87.8015 366.002 87.6823 366.033 87.561 366.059C87.4396 366.085 87.3226 366.098 87.21 366.098ZM90.9289 359.279V366H89.4079V359.279H90.9289ZM90.9484 356.607V358.102H89.3819V356.607H90.9484ZM94.0809 363.003C94.0765 363.385 94.1372 363.723 94.2629 364.017C94.3885 364.312 94.5749 364.544 94.8219 364.713C95.0689 364.878 95.3744 364.96 95.7384 364.96C96.111 364.96 96.4339 364.878 96.7069 364.713C96.9842 364.544 97.1684 364.288 97.2594 363.946H98.7089C98.6309 364.414 98.4445 364.81 98.1499 365.135C97.8552 365.46 97.4977 365.707 97.0774 365.876C96.6614 366.046 96.228 366.13 95.7774 366.13C95.1274 366.13 94.5554 365.994 94.0614 365.72C93.5717 365.443 93.1882 365.049 92.9109 364.537C92.6379 364.026 92.5014 363.417 92.5014 362.711C92.5014 362.022 92.627 361.411 92.8784 360.878C93.1297 360.341 93.4915 359.918 93.9639 359.61C94.4405 359.303 95.0125 359.149 95.6799 359.149C96.3429 359.149 96.8997 359.29 97.3504 359.571C97.8054 359.853 98.1477 360.247 98.3774 360.754C98.6114 361.257 98.7284 361.846 98.7284 362.522V363.003H94.0809ZM94.0809 362.022H97.2334C97.2334 361.697 97.177 361.404 97.0644 361.144C96.9517 360.88 96.7784 360.672 96.5444 360.52C96.3147 360.364 96.0244 360.286 95.6734 360.286C95.3267 360.286 95.0342 360.371 94.7959 360.54C94.5575 360.709 94.3777 360.928 94.2564 361.196C94.135 361.461 94.0765 361.736 94.0809 362.022ZM100.203 366V359.279H101.75V360.241C101.854 360.068 101.994 359.901 102.172 359.74C102.354 359.58 102.577 359.45 102.842 359.35C103.106 359.251 103.416 359.201 103.771 359.201C104.187 359.201 104.573 359.283 104.928 359.448C105.288 359.613 105.576 359.87 105.793 360.221C106.014 360.572 106.124 361.025 106.124 361.58V366H104.538V361.768C104.538 361.326 104.417 360.999 104.174 360.787C103.931 360.57 103.626 360.462 103.258 360.462C103.006 360.462 102.768 360.505 102.543 360.592C102.317 360.674 102.133 360.802 101.99 360.975C101.851 361.144 101.782 361.357 101.782 361.612V366H100.203ZM111.299 360.397H109.798L109.804 364.251C109.804 364.451 109.826 364.598 109.869 364.693C109.917 364.784 109.99 364.845 110.09 364.875C110.194 364.901 110.333 364.914 110.506 364.914H111.332V365.915C111.245 365.95 111.113 365.98 110.935 366.007C110.762 366.037 110.528 366.052 110.233 366.052C109.7 366.052 109.286 365.983 108.992 365.844C108.701 365.701 108.5 365.499 108.387 365.239C108.274 364.979 108.218 364.67 108.218 364.31V360.397H107.126V359.279H108.264L108.66 357.283H109.798V359.272H111.299V360.397ZM115.338 366.13C114.87 366.13 114.425 366.056 114.005 365.909C113.589 365.757 113.238 365.521 112.952 365.2C112.67 364.88 112.493 364.466 112.419 363.959H113.81C113.871 364.206 113.977 364.407 114.129 364.563C114.285 364.719 114.469 364.834 114.681 364.908C114.893 364.977 115.11 365.012 115.331 365.012C115.734 365.012 116.059 364.943 116.306 364.804C116.557 364.665 116.683 364.451 116.683 364.16C116.683 363.948 116.614 363.779 116.475 363.653C116.336 363.528 116.115 363.432 115.812 363.367L114.532 363.075C113.964 362.949 113.507 362.741 113.16 362.451C112.818 362.161 112.644 361.751 112.64 361.222C112.636 360.824 112.735 360.468 112.939 360.156C113.143 359.844 113.446 359.6 113.849 359.422C114.252 359.24 114.75 359.149 115.344 359.149C116.128 359.149 116.757 359.324 117.229 359.675C117.701 360.022 117.944 360.518 117.957 361.164H116.612C116.564 360.874 116.427 360.648 116.202 360.488C115.977 360.323 115.684 360.241 115.325 360.241C114.952 360.241 114.646 360.312 114.408 360.455C114.17 360.598 114.051 360.817 114.051 361.112C114.051 361.316 114.142 361.476 114.324 361.593C114.506 361.71 114.779 361.81 115.143 361.892L116.352 362.184C116.698 362.271 116.982 362.388 117.203 362.535C117.424 362.683 117.597 362.845 117.723 363.023C117.849 363.196 117.935 363.376 117.983 363.562C118.035 363.744 118.061 363.913 118.061 364.069C118.061 364.503 117.948 364.873 117.723 365.181C117.502 365.484 117.188 365.718 116.781 365.883C116.373 366.048 115.892 366.13 115.338 366.13Z" fill="black"/>
<path d="M62.0345 389.828L62.5906 389.642L62.319 388.827L61.6592 389.377L62.0345 389.828ZM63.2069 393.345L62.6508 393.53L62.9395 394.396L63.6069 393.773L63.2069 393.345ZM72.5859 385.158C72.597 384.835 72.3438 384.563 72.0202 384.552L66.7475 384.37C66.4239 384.359 66.1526 384.612 66.1414 384.936C66.1303 385.259 66.3835 385.531 66.7071 385.542L71.3939 385.704L71.2323 390.39C71.2212 390.714 71.4744 390.985 71.798 390.997C72.1215 391.008 72.3929 390.754 72.404 390.431L72.5859 385.158ZM55.3753 396.14L62.4098 390.278L61.6592 389.377L54.6247 395.239L55.3753 396.14ZM61.4784 390.013L62.6508 393.53L63.763 393.159L62.5906 389.642L61.4784 390.013ZM63.6069 393.773L72.4 385.566L71.6 384.709L62.8069 392.916L63.6069 393.773Z" fill="#1939B7"/>
<path d="M83.126 389.506H85.436C86.132 389.506 86.646 389.382 86.978 389.134C87.314 388.886 87.482 388.474 87.482 387.898C87.482 387.402 87.33 387.034 87.026 386.794C86.726 386.554 86.278 386.434 85.682 386.434H83.126V385.738H85.832C86.768 385.738 87.496 385.926 88.016 386.302C88.54 386.674 88.802 387.214 88.802 387.922C88.802 388.358 88.718 388.724 88.55 389.02C88.386 389.316 88.174 389.556 87.914 389.74C87.658 389.924 87.39 390.062 87.11 390.154C87.054 390.17 87.04 390.214 87.068 390.286L88.658 394.414H87.284L85.82 390.376H83.126V389.506ZM89.774 385.732V386.386L83.138 386.392V385.738L89.774 385.732ZM89.774 387.562V388.222L83.138 388.228V387.574L89.774 387.562ZM90.7635 394.414V393.736V393.382C90.7635 392.938 90.8455 392.554 91.0095 392.23C91.1775 391.906 91.3975 391.624 91.6695 391.384C91.9455 391.14 92.2455 390.922 92.5695 390.73C92.8975 390.538 93.2235 390.354 93.5475 390.178C93.8755 389.998 94.1755 389.812 94.4475 389.62C94.7195 389.424 94.9375 389.204 95.1015 388.96C95.2695 388.712 95.3535 388.42 95.3535 388.084C95.3535 387.644 95.1975 387.286 94.8855 387.01C94.5775 386.734 94.1595 386.596 93.6315 386.596C93.0635 386.596 92.6075 386.756 92.2635 387.076C91.9195 387.396 91.7255 387.822 91.6815 388.354H90.5775C90.5895 387.854 90.7135 387.398 90.9495 386.986C91.1855 386.57 91.5315 386.238 91.9875 385.99C92.4435 385.742 93.0055 385.618 93.6735 385.618C94.2535 385.618 94.7575 385.722 95.1855 385.93C95.6135 386.134 95.9435 386.422 96.1755 386.794C96.4115 387.162 96.5295 387.592 96.5295 388.084C96.5295 388.532 96.4475 388.916 96.2835 389.236C96.1195 389.556 95.9015 389.834 95.6295 390.07C95.3615 390.302 95.0675 390.51 94.7475 390.694C94.4275 390.878 94.1055 391.056 93.7815 391.228C93.4575 391.396 93.1615 391.574 92.8935 391.762C92.6255 391.946 92.4095 392.158 92.2455 392.398C92.0815 392.638 91.9995 392.924 91.9995 393.256V393.43H96.5775V394.414H90.7635ZM98.572 385.738H103.75L103.72 386.698H99.52L99.298 389.5C99.586 389.232 99.9 389.042 100.24 388.93C100.584 388.814 100.956 388.756 101.356 388.756C101.88 388.756 102.362 388.864 102.802 389.08C103.246 389.292 103.602 389.608 103.87 390.028C104.138 390.444 104.272 390.96 104.272 391.576C104.272 392.176 104.142 392.698 103.882 393.142C103.622 393.586 103.256 393.932 102.784 394.18C102.312 394.424 101.758 394.546 101.122 394.546C100.586 394.546 100.09 394.452 99.634 394.264C99.178 394.076 98.786 393.814 98.458 393.478C98.134 393.142 97.896 392.756 97.744 392.32L98.704 391.918C98.848 392.246 99.028 392.538 99.244 392.794C99.464 393.05 99.724 393.25 100.024 393.394C100.324 393.538 100.664 393.61 101.044 393.61C101.66 393.61 102.154 393.432 102.526 393.076C102.902 392.716 103.09 392.228 103.09 391.612C103.09 391.228 103.002 390.894 102.826 390.61C102.65 390.322 102.412 390.098 102.112 389.938C101.816 389.778 101.488 389.698 101.128 389.698C100.892 389.698 100.672 389.72 100.468 389.764C100.264 389.804 100.062 389.884 99.862 390.004C99.662 390.124 99.452 390.306 99.232 390.55C99.208 390.562 99.19 390.568 99.178 390.568C99.166 390.564 99.146 390.556 99.118 390.544L98.182 390.25L98.572 385.738ZM108.533 385.618C109.473 385.618 110.221 385.996 110.777 386.752C111.337 387.504 111.617 388.618 111.617 390.094C111.617 391.562 111.339 392.672 110.783 393.424C110.227 394.172 109.473 394.546 108.521 394.546C107.573 394.546 106.821 394.174 106.265 393.43C105.709 392.682 105.431 391.576 105.431 390.112C105.431 389.124 105.559 388.296 105.815 387.628C106.071 386.96 106.431 386.458 106.895 386.122C107.359 385.786 107.905 385.618 108.533 385.618ZM108.533 393.586C109.153 393.586 109.621 393.314 109.937 392.77C110.257 392.222 110.417 391.332 110.417 390.1C110.417 388.844 110.255 387.94 109.931 387.388C109.611 386.832 109.143 386.554 108.527 386.554C107.915 386.554 107.443 386.834 107.111 387.394C106.783 387.95 106.619 388.852 106.619 390.1C106.619 391.328 106.783 392.216 107.111 392.764C107.439 393.312 107.913 393.586 108.533 393.586ZM115.811 385.618C116.751 385.618 117.499 385.996 118.055 386.752C118.615 387.504 118.895 388.618 118.895 390.094C118.895 391.562 118.617 392.672 118.061 393.424C117.505 394.172 116.751 394.546 115.799 394.546C114.851 394.546 114.099 394.174 113.543 393.43C112.987 392.682 112.709 391.576 112.709 390.112C112.709 389.124 112.837 388.296 113.093 387.628C113.349 386.96 113.709 386.458 114.173 386.122C114.637 385.786 115.183 385.618 115.811 385.618ZM115.811 393.586C116.431 393.586 116.899 393.314 117.215 392.77C117.535 392.222 117.695 391.332 117.695 390.1C117.695 388.844 117.533 387.94 117.209 387.388C116.889 386.832 116.421 386.554 115.805 386.554C115.193 386.554 114.721 386.834 114.389 387.394C114.061 387.95 113.897 388.852 113.897 390.1C113.897 391.328 114.061 392.216 114.389 392.764C114.717 393.312 115.191 393.586 115.811 393.586ZM123.088 385.618C124.028 385.618 124.776 385.996 125.332 386.752C125.892 387.504 126.172 388.618 126.172 390.094C126.172 391.562 125.894 392.672 125.338 393.424C124.782 394.172 124.028 394.546 123.076 394.546C122.128 394.546 121.376 394.174 120.82 393.43C120.264 392.682 119.986 391.576 119.986 390.112C119.986 389.124 120.114 388.296 120.37 387.628C120.626 386.96 120.986 386.458 121.45 386.122C121.914 385.786 122.46 385.618 123.088 385.618ZM123.088 393.586C123.708 393.586 124.176 393.314 124.492 392.77C124.812 392.222 124.972 391.332 124.972 390.1C124.972 388.844 124.81 387.94 124.486 387.388C124.166 386.832 123.698 386.554 123.082 386.554C122.47 386.554 121.998 386.834 121.666 387.394C121.338 387.95 121.174 388.852 121.174 390.1C121.174 391.328 121.338 392.216 121.666 392.764C121.994 393.312 122.468 393.586 123.088 393.586ZM130.366 385.618C131.306 385.618 132.054 385.996 132.61 386.752C133.17 387.504 133.45 388.618 133.45 390.094C133.45 391.562 133.172 392.672 132.616 393.424C132.06 394.172 131.306 394.546 130.354 394.546C129.406 394.546 128.654 394.174 128.098 393.43C127.542 392.682 127.264 391.576 127.264 390.112C127.264 389.124 127.392 388.296 127.648 387.628C127.904 386.96 128.264 386.458 128.728 386.122C129.192 385.786 129.738 385.618 130.366 385.618ZM130.366 393.586C130.986 393.586 131.454 393.314 131.77 392.77C132.09 392.222 132.25 391.332 132.25 390.1C132.25 388.844 132.088 387.94 131.764 387.388C131.444 386.832 130.976 386.554 130.36 386.554C129.748 386.554 129.276 386.834 128.944 387.394C128.616 387.95 128.451 388.852 128.451 390.1C128.451 391.328 128.616 392.216 128.944 392.764C129.272 393.312 129.746 393.586 130.366 393.586Z" fill="#091A7A"/>
<rect x="44.5" y="345.5" width="94" height="61.8276" rx="10.5" stroke="#DFE3E8"/>
<path d="M164.987 370.969C165.181 370.772 165.179 370.456 164.983 370.262C164.786 370.068 164.47 370.069 164.275 370.266L164.987 370.969ZM164.275 370.266C161.629 372.944 157.697 375.848 153.833 378.066C151.903 379.173 150.001 380.104 148.295 380.748C146.578 381.397 145.103 381.739 144.013 381.71L143.987 382.71C145.271 382.744 146.89 382.348 148.648 381.684C150.417 381.016 152.368 380.059 154.331 378.933C158.253 376.682 162.263 373.726 164.987 370.969L164.275 370.266Z" fill="#637381"/>
<path d="M27.8725 205V197.642H26.0915V196.777C26.6462 196.777 27.0817 196.734 27.398 196.647C27.7187 196.556 27.9483 196.424 28.087 196.251C28.23 196.073 28.3102 195.857 28.3275 195.601H29.296V205H27.8725ZM38.535 195.471C39.211 195.471 39.8112 195.61 40.3355 195.887C40.8599 196.164 41.2802 196.537 41.5965 197.005C41.9172 197.473 42.1079 197.991 42.1685 198.558H40.6865C40.6215 198.203 40.4959 197.882 40.3095 197.596C40.1275 197.306 39.8849 197.079 39.5815 196.914C39.2782 196.745 38.9185 196.66 38.5025 196.66C37.9695 196.66 37.5167 196.786 37.144 197.037C36.7714 197.289 36.4875 197.681 36.2925 198.214C36.1019 198.747 36.0065 199.434 36.0065 200.274C36.0065 201.544 36.221 202.474 36.65 203.063C37.079 203.648 37.6965 203.94 38.5025 203.94C38.9185 203.94 39.2782 203.852 39.5815 203.674C39.8849 203.492 40.1275 203.251 40.3095 202.952C40.4959 202.649 40.6215 202.32 40.6865 201.964H42.1685C42.1165 202.376 42.0082 202.773 41.8435 203.154C41.6789 203.531 41.4492 203.869 41.1545 204.168C40.8642 204.467 40.5024 204.703 40.069 204.876C39.6357 205.046 39.1244 205.13 38.535 205.13C37.6857 205.13 36.9577 204.935 36.351 204.545C35.7444 204.151 35.2785 203.592 34.9535 202.868C34.6329 202.14 34.4725 201.269 34.4725 200.255C34.4725 199.245 34.6329 198.385 34.9535 197.674C35.2742 196.959 35.7379 196.413 36.3445 196.036C36.9512 195.659 37.6814 195.471 38.535 195.471ZM45.6043 205.091C45.2056 205.091 44.885 205.039 44.6423 204.935C44.404 204.831 44.222 204.692 44.0963 204.519C43.9706 204.341 43.8861 204.142 43.8428 203.921C43.8038 203.696 43.7843 203.464 43.7843 203.225V195.341H45.1558V203.082C45.1558 203.394 45.2165 203.633 45.3378 203.797C45.4635 203.962 45.6541 204.055 45.9098 204.077L46.2608 204.09V204.974C46.1525 205.009 46.0398 205.037 45.9228 205.059C45.8101 205.08 45.704 205.091 45.6043 205.091ZM49.1888 198.279V205H47.8498V198.279H49.1888ZM49.2148 195.607V196.979H47.8173V195.607H49.2148ZM52.2387 201.964C52.2387 202.367 52.3037 202.729 52.4337 203.05C52.568 203.366 52.7695 203.618 53.0382 203.804C53.3068 203.986 53.6405 204.077 54.0392 204.077C54.4378 204.077 54.7823 203.986 55.0727 203.804C55.3673 203.622 55.5602 203.351 55.6512 202.991H56.9382C56.8602 203.451 56.676 203.841 56.3857 204.161C56.0997 204.482 55.753 204.725 55.3457 204.889C54.9383 205.05 54.5115 205.13 54.0652 205.13C53.4282 205.13 52.867 204.994 52.3817 204.72C51.8963 204.443 51.5172 204.049 51.2442 203.537C50.9755 203.026 50.8412 202.417 50.8412 201.711C50.8412 201.013 50.9647 200.398 51.2117 199.865C51.4587 199.328 51.8162 198.907 52.2842 198.604C52.7522 198.301 53.3155 198.149 53.9742 198.149C54.6242 198.149 55.1702 198.288 55.6122 198.565C56.0585 198.842 56.3965 199.232 56.6262 199.735C56.8558 200.233 56.9707 200.823 56.9707 201.503V201.964H52.2387ZM52.2387 201.061H55.6447C55.6447 200.71 55.584 200.391 55.4627 200.105C55.3413 199.815 55.155 199.588 54.9037 199.423C54.6567 199.254 54.3447 199.169 53.9677 199.169C53.582 199.169 53.2613 199.263 53.0057 199.449C52.75 199.635 52.5572 199.874 52.4272 200.164C52.3015 200.454 52.2387 200.753 52.2387 201.061ZM58.5236 205V198.279H59.8821V199.247C59.9904 199.065 60.1356 198.894 60.3176 198.734C60.5039 198.574 60.7314 198.444 61.0001 198.344C61.2731 198.244 61.5872 198.194 61.9426 198.194C62.3629 198.194 62.7507 198.279 63.1061 198.448C63.4657 198.613 63.7539 198.873 63.9706 199.228C64.1872 199.579 64.2956 200.034 64.2956 200.593V205H62.9046V200.742C62.9046 200.261 62.7746 199.904 62.5146 199.67C62.2589 199.436 61.9274 199.319 61.5201 199.319C61.2471 199.319 60.9871 199.364 60.7401 199.455C60.4931 199.546 60.2937 199.685 60.1421 199.871C59.9904 200.053 59.9146 200.283 59.9146 200.56V205H58.5236ZM69.3624 199.28H67.8544L67.8609 203.29C67.8609 203.511 67.8826 203.674 67.9259 203.778C67.9736 203.878 68.0516 203.943 68.1599 203.973C68.2726 203.999 68.4242 204.012 68.6149 204.012H69.4014V204.915C69.3147 204.95 69.1847 204.98 69.0114 205.007C68.8424 205.033 68.6236 205.046 68.3549 205.046C67.8566 205.046 67.4687 204.978 67.1914 204.844C66.9184 204.71 66.7277 204.517 66.6194 204.265C66.5154 204.01 66.4634 203.702 66.4634 203.342V199.28H65.3714V198.279H66.5024L66.8469 196.303H67.8544V198.272H69.3624V199.28ZM73.4412 205.13C72.9732 205.13 72.5333 205.056 72.1217 204.909C71.7143 204.762 71.372 204.53 71.0947 204.213C70.8217 203.897 70.6505 203.492 70.5812 202.998H71.8227C71.879 203.254 71.9852 203.466 72.1412 203.635C72.3015 203.8 72.4922 203.923 72.7132 204.005C72.9385 204.083 73.179 204.122 73.4347 204.122C73.8593 204.122 74.2017 204.047 74.4617 203.895C74.726 203.739 74.8582 203.501 74.8582 203.18C74.8582 202.95 74.7867 202.766 74.6437 202.627C74.505 202.489 74.284 202.387 73.9807 202.322L72.6417 202.003C72.087 201.873 71.6428 201.668 71.3092 201.386C70.9755 201.1 70.8065 200.701 70.8022 200.19C70.8022 199.796 70.8997 199.445 71.0947 199.137C71.294 198.829 71.5887 198.589 71.9787 198.415C72.3687 198.238 72.854 198.149 73.4347 198.149C74.193 198.149 74.8018 198.318 75.2612 198.656C75.7205 198.994 75.9588 199.484 75.9762 200.125H74.7737C74.7303 199.817 74.5895 199.577 74.3512 199.403C74.1172 199.226 73.8073 199.137 73.4217 199.137C73.023 199.137 72.6958 199.217 72.4402 199.377C72.1845 199.533 72.0567 199.774 72.0567 200.099C72.0567 200.32 72.1498 200.495 72.3362 200.625C72.5225 200.751 72.802 200.855 73.1747 200.938L74.4487 201.256C74.778 201.343 75.0488 201.457 75.2612 201.6C75.4735 201.739 75.6403 201.893 75.7617 202.062C75.883 202.231 75.9675 202.406 76.0152 202.588C76.0672 202.77 76.0932 202.942 76.0932 203.102C76.0932 203.527 75.9848 203.891 75.7682 204.194C75.5558 204.493 75.2503 204.725 74.8517 204.889C74.4573 205.05 73.9872 205.13 73.4412 205.13Z" fill="black"/>
<path d="M26.0345 225.828L26.5906 225.642L26.319 224.827L25.6592 225.377L26.0345 225.828ZM27.2069 229.345L26.6508 229.53L26.9395 230.396L27.6069 229.773L27.2069 229.345ZM36.5859 221.158C36.597 220.835 36.3438 220.563 36.0202 220.552L30.7475 220.37C30.4239 220.359 30.1526 220.612 30.1414 220.936C30.1303 221.259 30.3835 221.531 30.7071 221.542L35.3939 221.704L35.2323 226.39C35.2212 226.714 35.4744 226.985 35.798 226.997C36.1215 227.008 36.3929 226.754 36.404 226.431L36.5859 221.158ZM19.3753 232.14L26.4098 226.278L25.6592 225.377L18.6247 231.239L19.3753 232.14ZM25.4784 226.013L26.6508 229.53L27.763 229.159L26.5906 225.642L25.4784 226.013ZM27.6069 229.773L36.4 221.566L35.6 220.709L26.8069 228.916L27.6069 229.773Z" fill="#1939B7"/>
<path d="M47.126 225.506H49.436C50.132 225.506 50.646 225.382 50.978 225.134C51.314 224.886 51.482 224.474 51.482 223.898C51.482 223.402 51.33 223.034 51.026 222.794C50.726 222.554 50.278 222.434 49.682 222.434H47.126V221.738H49.832C50.768 221.738 51.496 221.926 52.016 222.302C52.54 222.674 52.802 223.214 52.802 223.922C52.802 224.358 52.718 224.724 52.55 225.02C52.386 225.316 52.174 225.556 51.914 225.74C51.658 225.924 51.39 226.062 51.11 226.154C51.054 226.17 51.04 226.214 51.068 226.286L52.658 230.414H51.284L49.82 226.376H47.126V225.506ZM53.774 221.732V222.386L47.138 222.392V221.738L53.774 221.732ZM53.774 223.562V224.222L47.138 224.228V223.574L53.774 223.562ZM54.7635 230.414V229.736V229.382C54.7635 228.938 54.8455 228.554 55.0095 228.23C55.1775 227.906 55.3975 227.624 55.6695 227.384C55.9455 227.14 56.2455 226.922 56.5695 226.73C56.8975 226.538 57.2235 226.354 57.5475 226.178C57.8755 225.998 58.1755 225.812 58.4475 225.62C58.7195 225.424 58.9375 225.204 59.1015 224.96C59.2695 224.712 59.3535 224.42 59.3535 224.084C59.3535 223.644 59.1975 223.286 58.8855 223.01C58.5775 222.734 58.1595 222.596 57.6315 222.596C57.0635 222.596 56.6075 222.756 56.2635 223.076C55.9195 223.396 55.7255 223.822 55.6815 224.354H54.5775C54.5895 223.854 54.7135 223.398 54.9495 222.986C55.1855 222.57 55.5315 222.238 55.9875 221.99C56.4435 221.742 57.0055 221.618 57.6735 221.618C58.2535 221.618 58.7575 221.722 59.1855 221.93C59.6135 222.134 59.9435 222.422 60.1755 222.794C60.4115 223.162 60.5295 223.592 60.5295 224.084C60.5295 224.532 60.4475 224.916 60.2835 225.236C60.1195 225.556 59.9015 225.834 59.6295 226.07C59.3615 226.302 59.0675 226.51 58.7475 226.694C58.4275 226.878 58.1055 227.056 57.7815 227.228C57.4575 227.396 57.1615 227.574 56.8935 227.762C56.6255 227.946 56.4095 228.158 56.2455 228.398C56.0815 228.638 55.9995 228.924 55.9995 229.256V229.43H60.5775V230.414H54.7635ZM64.846 221.618C65.786 221.618 66.534 221.996 67.09 222.752C67.65 223.504 67.93 224.618 67.93 226.094C67.93 227.562 67.652 228.672 67.096 229.424C66.54 230.172 65.786 230.546 64.834 230.546C63.886 230.546 63.134 230.174 62.578 229.43C62.022 228.682 61.744 227.576 61.744 226.112C61.744 225.124 61.872 224.296 62.128 223.628C62.384 222.96 62.744 222.458 63.208 222.122C63.672 221.786 64.218 221.618 64.846 221.618ZM64.846 229.586C65.466 229.586 65.934 229.314 66.25 228.77C66.57 228.222 66.73 227.332 66.73 226.1C66.73 224.844 66.568 223.94 66.244 223.388C65.924 222.832 65.456 222.554 64.84 222.554C64.228 222.554 63.756 222.834 63.424 223.394C63.096 223.95 62.932 224.852 62.932 226.1C62.932 227.328 63.096 228.216 63.424 228.764C63.752 229.312 64.226 229.586 64.846 229.586ZM72.1233 221.618C73.0633 221.618 73.8113 221.996 74.3673 222.752C74.9273 223.504 75.2073 224.618 75.2073 226.094C75.2073 227.562 74.9293 228.672 74.3733 229.424C73.8173 230.172 73.0633 230.546 72.1113 230.546C71.1633 230.546 70.4113 230.174 69.8553 229.43C69.2993 228.682 69.0213 227.576 69.0213 226.112C69.0213 225.124 69.1493 224.296 69.4053 223.628C69.6613 222.96 70.0213 222.458 70.4853 222.122C70.9493 221.786 71.4953 221.618 72.1233 221.618ZM72.1233 229.586C72.7433 229.586 73.2113 229.314 73.5273 228.77C73.8473 228.222 74.0073 227.332 74.0073 226.1C74.0073 224.844 73.8453 223.94 73.5213 223.388C73.2013 222.832 72.7333 222.554 72.1173 222.554C71.5053 222.554 71.0333 222.834 70.7013 223.394C70.3733 223.95 70.2093 224.852 70.2093 226.1C70.2093 227.328 70.3733 228.216 70.7013 228.764C71.0293 229.312 71.5033 229.586 72.1233 229.586ZM79.4007 221.618C80.3407 221.618 81.0887 221.996 81.6447 222.752C82.2047 223.504 82.4847 224.618 82.4847 226.094C82.4847 227.562 82.2067 228.672 81.6507 229.424C81.0947 230.172 80.3407 230.546 79.3887 230.546C78.4407 230.546 77.6887 230.174 77.1327 229.43C76.5767 228.682 76.2987 227.576 76.2987 226.112C76.2987 225.124 76.4267 224.296 76.6827 223.628C76.9387 222.96 77.2987 222.458 77.7627 222.122C78.2267 221.786 78.7727 221.618 79.4007 221.618ZM79.4007 229.586C80.0207 229.586 80.4887 229.314 80.8047 228.77C81.1247 228.222 81.2847 227.332 81.2847 226.1C81.2847 224.844 81.1227 223.94 80.7987 223.388C80.4787 222.832 80.0107 222.554 79.3947 222.554C78.7827 222.554 78.3107 222.834 77.9787 223.394C77.6507 223.95 77.4867 224.852 77.4867 226.1C77.4867 227.328 77.6507 228.216 77.9787 228.764C78.3067 229.312 78.7807 229.586 79.4007 229.586ZM86.678 221.618C87.618 221.618 88.366 221.996 88.922 222.752C89.482 223.504 89.762 224.618 89.762 226.094C89.762 227.562 89.484 228.672 88.928 229.424C88.372 230.172 87.618 230.546 86.666 230.546C85.718 230.546 84.966 230.174 84.41 229.43C83.854 228.682 83.576 227.576 83.576 226.112C83.576 225.124 83.704 224.296 83.96 223.628C84.216 222.96 84.576 222.458 85.04 222.122C85.504 221.786 86.05 221.618 86.678 221.618ZM86.678 229.586C87.298 229.586 87.766 229.314 88.082 228.77C88.402 228.222 88.562 227.332 88.562 226.1C88.562 224.844 88.4 223.94 88.076 223.388C87.756 222.832 87.288 222.554 86.672 222.554C86.06 222.554 85.588 222.834 85.256 223.394C84.928 223.95 84.764 224.852 84.764 226.1C84.764 227.328 84.928 228.216 85.256 228.764C85.584 229.312 86.058 229.586 86.678 229.586Z" fill="#091A7A"/>
<rect x="8.5" y="187.5" width="86" height="55.8276" rx="10.5" stroke="#DFE3E8"/>
<path d="M111.877 220.184C112.06 220.391 112.041 220.707 111.834 220.89C111.627 221.073 111.311 221.054 111.128 220.847L111.877 220.184ZM111.128 220.847C109.163 218.628 106.385 216.318 103.687 214.454C100.976 212.581 98.4099 211.202 96.8722 210.796L97.1278 209.829C98.8433 210.282 101.529 211.747 104.255 213.632C106.996 215.525 109.842 217.887 111.877 220.184L111.128 220.847Z" fill="#637381"/>
<rect x="2.5" y="1.5" width="491" height="446" rx="23.5" stroke="#F4F6F8"/>
</g>
<defs>
<filter id="filter0_d_1_3258" x="0" y="0" width="496" height="451" filterUnits="userSpaceOnUse" color-interpolation-filters="sRGB">
<feFlood flood-opacity="0" result="BackgroundImageFix"/>
<feColorMatrix in="SourceAlpha" type="matrix" values="0 0 0 0 0 0 0 0 0 0 0 0 0 0 0 0 0 0 127 0" result="hardAlpha"/>
<feOffset dy="1"/>
<feGaussianBlur stdDeviation="1"/>
<feColorMatrix type="matrix" values="0 0 0 0 0.568627 0 0 0 0 0.619608 0 0 0 0 0.670588 0 0 0 0.16 0"/>
<feBlend mode="normal" in2="BackgroundImageFix" result="effect1_dropShadow_1_3258"/>
<feBlend mode="normal" in="SourceGraphic" in2="effect1_dropShadow_1_3258" result="shape"/>
</filter>
</defs>
</svg>
